<?xml version="1.0" encoding="UTF-8" standalone="no"?>
<svg
   xmlns:dc="http://purl.org/dc/elements/1.1/"
   xmlns:cc="http://creativecommons.org/ns#"
   xmlns:rdf="http://www.w3.org/1999/02/22-rdf-syntax-ns#"
   xmlns:svg="http://www.w3.org/2000/svg"
   xmlns="http://www.w3.org/2000/svg"
   xmlns:sodipodi="http://sodipodi.sourceforge.net/DTD/sodipodi-0.dtd"
   xmlns:inkscape="http://www.inkscape.org/namespaces/inkscape"
   width="15.594488pc"
   height="12.973901pc"
   viewBox="0 0 66.016666 54.922849"
   version="1.1"
   id="svg851"
   sodipodi:docname="bottom_chinos.svg"
   inkscape:version="0.92.3 (2405546, 2018-03-11)">
  <sodipodi:namedview
     pagecolor="#ffffff"
     bordercolor="#666666"
     borderopacity="1"
     objecttolerance="10"
     gridtolerance="10"
     guidetolerance="10"
     inkscape:pageopacity="0"
     inkscape:pageshadow="2"
     inkscape:window-width="640"
     inkscape:window-height="480"
     id="namedview14"
     showgrid="false"
     fit-margin-top="1"
     fit-margin-left="1"
     fit-margin-right="1"
     fit-margin-bottom="1"
     inkscape:zoom="0.36875"
     inkscape:cx="125.23562"
     inkscape:cy="216.29117"
     inkscape:window-x="67"
     inkscape:window-y="27"
     inkscape:window-maximized="0"
     inkscape:current-layer="svg851" />
  <defs
     id="defs845" />
  <metadata
     id="metadata848">
    <rdf:RDF>
      <cc:Work
         rdf:about="">
        <dc:format>image/svg+xml</dc:format>
        <dc:type
           rdf:resource="http://purl.org/dc/dcmitype/StillImage" />
        <dc:title></dc:title>
      </cc:Work>
    </rdf:RDF>
  </metadata>
  <g
     id="layer1"
     transform="translate(-30.364742,-214.6375)"
     style="display:none">
    <path
       style="fill:#000000;stroke-width:1.37475872"
       d="m 13.117557,207.20988 9.132127,-14.22383 c 5.022679,-7.82305 10.967109,-17.2087 13.209846,-20.85692 l 4.077715,-6.63308 9.62331,0.87001 c 12.136415,1.09717 16.881892,1.09172 28.883766,-0.0311 l 9.637127,-0.90347 3.035525,5.29185 c 1.669533,2.91051 7.540789,12.22417 13.047267,20.69709 l 10.01173,15.40523 0.50577,9.9375 c -4.32707,0.53419 -8.44684,-4.78593 -17.108492,-15.94665 -7.514117,-9.68228 -12.57756,-15.11197 -13.140685,-14.09134 -0.50385,0.91324 -1.687983,6.30023 -2.631384,11.97114 l -1.715273,10.31065 6.304861,22.68355 c 12.806962,46.07666 16.254063,59.33737 15.837383,60.9253 -0.26557,1.01206 -2.589404,1.46873 -6.153457,1.20919 v 3.7e-4 L 89.947968,293.40805 77.45914,265.11129 C 70.590265,249.5481 64.970295,236.28033 64.970295,235.62735 c 0,-0.65297 -0.463997,-1.18561 -1.031071,-1.18369 -0.843124,0.002 -15.399536,32.22844 -24.372055,53.95577 -2.047782,4.95885 -2.383855,5.15536 -8.815199,5.15536 h -6.686248 l 3.17542,-11.34175 c 1.746479,-6.23798 6.980556,-25.26119 11.631268,-42.27384 l 8.455839,-30.9321 -1.686144,-10.31067 c -0.927381,-5.6709 -2.090321,-11.09115 -2.584309,-12.04506 -0.564862,-1.09079 -5.426889,4.1384 -13.101865,14.09128 -8.216815,10.65552 -12.33356,16.05083 -16.48863,16.07374 m 43.386965,-55.60247 c -12.363648,-6.3539 -11.796783,-24.1211 0.939384,-29.44258 9.395373,-3.92568 19.722536,2.06892 21.697143,12.59455 2.202226,11.73886 -12.003938,22.31234 -22.636527,16.84803 z"
       id="path1436"
       inkscape:connector-curvature="0" />
  </g>
  <g
     id="layer3"
     style="display:none"
     transform="translate(-30.364742,-86.970862)">
    <path
       style="fill:#80a600;fill-opacity:1;stroke-width:0.43323824"
       d="m 56.451578,98.663289 c -0.116258,-0.11626 -2.537043,-0.316467 -5.37937,-0.444777 -2.842326,-0.12837 -5.811292,-0.465751 -6.597703,-0.749895 -1.38812,-0.501547 -1.426043,-0.580209 -1.299715,-2.696202 l 0.130176,-2.179574 -4.22406,-0.123954 c -3.696282,-0.108562 -4.224076,-0.219269 -4.224076,-0.886492 0,-0.686969 0.407705,-0.744673 4.11576,-0.582501 l 4.11576,0.18002 v -1.134776 -1.134776 h -4.129351 c -3.386594,0 -4.177246,-0.124772 -4.395516,-0.693585 -0.425848,-1.109723 0.690196,-1.45889 4.685719,-1.46598 l 3.742523,-0.0065 0.186979,-7.906588 c 0.102831,-4.348636 0.02702,-8.357947 -0.168312,-8.909583 -0.195395,-0.551652 -0.355275,-3.419064 -0.355275,-6.372048 v -5.369054 l -3.357594,-0.157357 -3.357595,-0.157194 3.682511,0.03078 3.682527,0.03078 0.111019,5.632092 c 0.06108,3.097668 0.214798,9.651586 0.341651,14.564303 l 0.230632,8.932196 -1.370582,0.274123 c -0.753827,0.150807 -2.710906,0.274106 -4.349095,0.274106 -1.696842,0 -2.978512,0.186422 -2.978512,0.433233 0,0.260107 1.740758,0.433249 4.355808,0.433249 h 4.355808 l -0.15703,4.089627 c -0.156211,4.068668 -0.151299,4.091313 0.951367,4.421715 0.609634,0.182656 1.985718,0.382178 3.057993,0.443401 1.072258,0.06124 3.411745,0.202584 5.198858,0.314175 4.395156,0.274429 16.791216,0.278719 20.795434,0.0066 1.787098,-0.12117 4.224061,-0.269145 5.415475,-0.328781 3.902615,-0.195362 4.44071,-0.51964 4.764103,-2.870998 0.157358,-1.143487 0.08302,-2.813933 -0.164955,-3.712099 -0.24799,-0.898183 -0.349232,-1.797561 -0.224951,-1.998622 0.124281,-0.201093 2.066526,-0.365606 4.316133,-0.365606 h 4.0902 v 1.732947 c 0,1.732604 0.551325,2.312649 1.024953,1.07835 0.297866,-0.776194 -0.124281,-3.17227 -0.611992,-3.473689 -0.187879,-0.116094 -2.037543,-0.297277 -4.110356,-0.402564 -2.07283,-0.105287 -3.892234,-0.315141 -4.04314,-0.466292 -0.233973,-0.23435 -0.179447,-19.488368 0.07516,-26.572128 l 0.08367,-2.325682 3.249278,-0.075 c 2.079527,-0.04798 3.737169,-0.33569 4.604486,-0.799085 l 1.355191,-0.724058 -0.195051,-5.648285 -0.195052,-5.648302 h 4.796885 c 2.909096,0 4.796876,-0.17049 4.796876,-0.433233 0,-0.50803 0.0193,-0.506278 -4.831737,-0.436704 -3.442594,0.04929 -3.805155,-0.02685 -4.440693,-0.934255 -0.380622,-0.543416 -0.692046,-1.32778 -0.692046,-1.743034 0,-0.415254 -0.56914,-1.403233 -1.264788,-2.195507 -1.009758,-1.150069 -1.992514,-1.640497 -4.873926,-2.432329 -11.708763,-3.217594 -13.051133,-3.878561 -14.184893,-6.984433 -0.758215,-2.077054 -1.95649,-2.768347 -2.396338,-1.382487 -0.15048,0.474087 -1.103222,1.156718 -2.197881,1.574771 -1.59072,0.607506 -2.082098,1.076614 -2.779727,2.653727 -0.466096,1.053674 -1.13471,1.915767 -1.485826,1.915767 -0.352049,0 -0.954199,-0.826938 -1.342468,-1.843589 -0.581666,-1.523077 -1.041556,-1.98318 -2.645179,-2.646456 -1.067608,-0.441567 -2.138458,-1.171602 -2.379669,-1.622306 -0.749684,-1.400793 -1.588329,-0.909972 -2.422439,1.417741 -1.14496,3.195178 -2.749517,4.011439 -13.102597,6.665575 -2.238162,0.573774 -4.499772,1.325226 -5.025782,1.669874 -1.002978,0.657184 -2.385645,3.158629 -2.385645,4.316002 0,1.096951 -1.27738,1.460019 -5.415475,1.539239 -4.288493,0.08204 -5.148507,0.549916 -4.8044,2.613412 0.101193,0.607358 0.200176,1.250494 0.219776,1.429204 0.01965,0.178709 0.230584,0.324932 0.468864,0.324932 0.238279,0 0.433232,-0.78664 0.433232,-1.74811 v -1.74811 l 4.440693,0.123463 c 3.694105,0.102667 4.412497,0.232729 4.273004,0.773328 -0.35552,1.377657 -0.568092,10.163662 -0.238313,9.849045 0.191433,-0.18264 0.567732,-3.425827 0.836222,-7.207092 0.647541,-9.119665 1.079578,-9.776326 7.433844,-11.29883 5.381105,-1.289333 10.338393,-2.967148 11.525337,-3.900798 1.066757,-0.83912 1.096951,-0.83989 1.307853,-0.0334 0.219416,0.839039 3.211093,2.626578 4.395909,2.626578 0.382669,0 0.863158,-0.712333 1.168933,-1.732947 0.285568,-0.953119 0.634571,-1.728739 0.775571,-1.723581 0.140983,0.0049 0.548787,0.63878 0.906206,1.408031 0.90971,1.957931 2.245448,2.054425 3.142796,0.22703 0.385616,-0.785298 0.790308,-1.730949 0.899312,-2.101436 0.109054,-0.370502 1.021204,-0.945259 2.027113,-1.277232 1.005893,-0.331974 2.048301,-0.954887 2.316431,-1.384256 0.711564,-1.139393 1.071915,-0.964089 1.37859,0.670645 0.577196,3.076725 2.965609,4.409565 12.28722,6.856795 5.711867,1.499547 6.260817,1.777846 7.540326,3.822577 0.828772,1.324407 0.976436,2.311421 1.166804,7.798288 l 0.217943,6.281957 -1.732964,0.182557 c -2.435948,0.256636 -5.475847,0.267868 -6.498573,0.02407 -1.164217,-0.277578 -1.510175,1.572167 -0.350264,1.872702 0.628906,0.162925 0.644904,0.212932 0.08105,0.253279 -0.980857,0.07025 -1.340651,6.110861 -1.445839,24.27415 -0.08171,14.120721 -0.105451,14.484052 -0.964728,14.801911 -0.484485,0.179217 -4.975103,0.573332 -9.979156,0.875799 -7.287604,0.440503 -10.770054,0.443172 -17.498768,0.0131 -4.620287,-0.295082 -8.839157,-0.64474 -9.375302,-0.777012 l -0.974782,-0.24049 -0.056,-12.841868 c -0.03078,-7.06303 -0.176974,-15.766231 -0.324916,-19.340442 l -0.268998,-6.498573 -1.732964,-0.246974 -1.732947,-0.246975 1.732947,-0.186258 c 1.44787,-0.155556 1.70837,-0.328813 1.583466,-1.05274 -0.205056,-1.1885 -0.289351,-1.226521 -1.40081,-0.63169 -0.938283,0.502169 -3.609514,0.383062 -6.639998,-0.296048 -1.129438,-0.253099 -1.233546,-0.186603 -1.015194,0.648375 0.133779,0.511731 0.06648,0.821158 -0.149498,0.687625 -0.216059,-0.133451 -0.392837,-0.04945 -0.392837,0.186831 0,0.236282 0.40461,0.558022 0.899132,0.71497 0.494506,0.15703 0.793027,0.391462 0.663375,0.52113 -0.129685,0.129685 -0.729232,-0.0876 -1.332365,-0.482781 -1.030586,-0.675262 -1.096624,-0.939692 -1.096624,-4.391079 v -3.672539 h -4.502637 c -4.901107,0 -5.028598,-0.06681 -5.028598,-2.634863 0,-2.368584 1.214371,-2.997228 5.789858,-2.997228 h 4.056911 l 0.716394,-1.875879 c 1.259483,-3.297911 2.57757,-4.143761 9.024449,-5.791267 7.851505,-2.006464 10.152659,-3.097111 10.981136,-5.204573 1.272385,-3.236654 2.345266,-3.986681 3.448881,-2.411042 0.318187,0.454257 1.386974,1.190498 2.375085,1.636077 1.237262,0.557923 2.059059,1.324652 2.639693,2.462785 0.463722,0.908957 0.985376,1.65214 1.159239,1.651485 0.17388,-6.39e-4 0.706046,-0.731738 1.182606,-1.624648 0.599186,-1.122675 1.501282,-1.926738 2.924362,-2.606601 1.131828,-0.54073 2.05788,-1.250968 2.05788,-1.578291 0,-0.814428 1.281146,-1.242601 1.98074,-0.661999 0.314159,0.260745 0.882332,1.410814 1.262627,2.555742 0.63264,1.904715 0.901687,2.175612 3.164721,3.186417 1.3603,0.607604 4.762253,1.696957 7.559877,2.420802 2.797625,0.723845 5.657881,1.611498 6.356116,1.972569 1.555188,0.804227 2.987649,2.745047 3.345085,4.532242 l 0.267246,1.336181 4.16991,0.0065 c 2.293459,0.0033 4.424859,0.168312 4.736449,0.365934 0.38226,0.242438 0.52316,1.120972 0.43323,2.701097 l -0.13329,2.341812 -4.44069,0.123462 c -3.063445,0.08515 -4.4692,0.286732 -4.532651,0.649866 -0.0506,0.289515 -0.09939,1.974453 -0.108235,3.744324 -0.01637,3.208457 -0.0208,3.220542 -1.523011,4.104937 -1.10409,0.649997 -2.278361,0.889897 -4.394894,0.897822 l -2.888257,0.01146 -0.211704,2.816046 c -0.409866,5.452154 -0.6778,19.315258 -0.433298,22.420065 l 0.247335,3.140978 h 3.618945 c 4.102661,0 5.35191,0.699628 5.35191,2.997245 0,2.553499 -0.148515,2.634863 -4.811965,2.634863 h -4.286037 v 1.918616 c 0,3.268715 -0.331221,3.39578 -10.83095,4.154958 -6.124599,0.44285 -17.033409,0.576707 -17.396625,0.21349 z m 35.15938,-8.669878 c 0,-1.070359 -0.04339,-1.083098 -3.682511,-1.083098 -3.282109,0 -3.682527,0.08646 -3.682527,0.794271 0,1.247513 0.360121,1.371926 3.971355,1.371926 3.331117,0 3.393683,-0.01998 3.393683,-1.083099 z M 65.616666,49.212501 c 0,-0.598663 -0.29243,-1.380899 -0.649849,-1.738334 -0.867055,-0.867055 -0.827216,-3.573033 0.06714,-4.561307 0.667173,-0.737223 0.667173,-0.847324 0,-1.584547 -0.925299,-1.022447 -0.914918,-2.603342 0.02391,-3.640756 0.63919,-0.706292 0.654058,-0.873687 0.108235,-1.218874 -1.609223,-1.017863 -1.715738,-0.614497 -1.715738,6.496853 0,6.098237 0.08793,6.959528 0.748914,7.329392 0.996445,0.557645 1.417266,0.236233 1.417266,-1.082427 z M 33.478862,46.56128 c 0.134925,-0.949418 0.03619,-0.974782 -3.790828,-0.974782 -3.918465,0 -3.929272,0.0033 -3.929272,1.099964 v 1.099964 l 3.790827,-0.125101 c 3.55728,-0.117404 3.799375,-0.185243 3.929273,-1.099963 z m 68.451638,0 c 0.13476,-0.949418 0.0362,-0.974782 -3.790823,-0.974782 -3.521388,0 -3.929289,0.08253 -3.929289,0.794271 0,1.278935 0.422065,1.410798 4.095767,1.279705 3.241175,-0.115603 3.495625,-0.192841 3.624345,-1.099194 z M 71.102403,34.953891 c 1.033615,-0.605737 1.879318,-1.255602 1.879318,-1.44412 0,-0.833275 -0.611091,-0.773623 -2.045272,0.199636 -0.847848,0.575378 -1.719242,1.046125 -1.936431,1.046125 -0.21719,0 -0.679995,-0.682352 -1.028458,-1.516331 -0.633622,-1.516479 -1.488412,-2.04447 -1.488412,-0.919388 0,1.269996 1.33695,3.735433 2.025639,3.735433 0.392853,0 1.559985,-0.495602 2.593616,-1.101355 z m 15.63463,22.457529 c 0.536129,-0.103322 1.413434,-0.103322 1.94958,0 0.536129,0.103322 0.09743,0.187749 -0.974799,0.187749 -1.072258,0 -1.510911,-0.08449 -0.974781,-0.187749 z M 37.131261,56.985278 c 0.416989,-0.10889 1.099341,-0.10889 1.516331,0 0.416989,0.109053 0.07581,0.198129 -0.758166,0.198129 -0.833979,0 -1.175155,-0.08924 -0.758165,-0.198129 z M 56.445356,33.631809 54.866,32.508086 55.539772,30.530669 c 0.549916,-1.613906 0.761538,-1.857605 1.151264,-1.325651 0.58463,0.797971 3.005235,2.084619 3.921888,2.084619 0.369242,0 0.671365,0.188829 0.671365,0.419642 0,0.230797 -0.251412,0.323148 -0.558709,0.205236 -0.342437,-0.131486 -0.772559,0.376971 -1.111131,1.313306 -0.659854,1.824774 -1.09438,1.880169 -3.169093,0.403988 z"
       id="path1527"
       inkscape:connector-curvature="0" />
  </g>
  <g
     id="layer2"
     style="display:none"
     transform="translate(-30.364742,-86.970862)">
    <path
       style="display:inline;fill:#e400a1;fill-opacity:1;stroke-width:0.26458332"
       d="m 94.040917,169.19697 c -1.078234,0.27144 -1.620356,-0.0273 -2.567386,-1.4146 -0.515723,-0.7555 -0.885967,-1.48999 -0.822753,-1.6322 0.06322,-0.1422 0.662024,-0.47928 1.330715,-0.74902 1.027075,-0.41432 1.548138,-0.84128 3.356935,-2.75068 2.308524,-2.43691 1.704576,-2.31407 -0.748809,0.15232 -2.448206,2.46116 -3.519932,2.9801 -4.174438,2.0213 -0.138298,-0.2026 -0.590624,-0.54976 -1.005164,-0.77145 -0.414538,-0.2217 -0.997846,-0.75942 -1.296224,-1.19495 -0.298386,-0.43552 -0.931009,-1.04419 -1.405826,-1.3526 -1.350881,-0.87744 -1.579103,-1.3741 -0.857698,-1.86655 0.899374,-0.61394 0.87921,-1.15233 -0.09668,-2.58195 -1.006842,-1.47495 -1.722421,-1.9426 -2.333839,-1.52523 -0.342046,0.23348 -0.531819,0.14299 -0.933194,-0.44499 -0.286886,-0.42027 -0.436263,-0.97351 -0.346921,-1.28485 0.08631,-0.30073 0.06642,-0.98631 -0.04419,-1.52352 -0.110603,-0.5372 -0.202333,-1.55577 -0.203837,-2.26348 -0.0057,-2.67022 -0.409676,-5.49825 -1.063611,-7.44588 -0.588648,-1.75313 -0.753188,-2.0418 -1.265006,-2.2192 -0.673452,-0.23343 -1.589147,-1.88372 -1.726293,-3.11117 -0.04574,-0.40928 -0.144544,-0.94332 -0.219579,-1.18676 -0.07502,-0.24346 0.06317,-0.62611 0.307138,-0.85037 0.371507,-0.3415 0.33233,-0.72756 -0.24121,-2.37653 -0.96211,-2.76615 -0.915437,-2.95351 1.032076,-4.14357 1.255146,-0.76696 2.033359,-1.04011 3.598749,-1.26311 1.098517,-0.15649 2.853509,-0.60104 3.899981,-0.98788 3.70955,-1.37131 4.788127,-1.21954 5.505465,0.77469 0.215666,0.59955 0.65618,1.9118 0.978921,2.91611 0.465375,1.44814 0.728464,1.93147 1.271343,2.33565 0.96693,0.71989 1.599661,2.72984 1.025486,3.25758 -0.307964,0.28312 -0.299788,0.92573 0.03243,2.54068 0.24458,1.18895 0.42983,2.33683 0.41166,2.55081 -0.06731,0.79283 1.159472,2.72806 2.041436,3.22033 0.463008,0.25844 0.968827,0.65592 1.124039,0.88329 0.401703,0.58847 1.989037,0.82091 2.627877,0.38483 0.29735,-0.20298 0.75825,-0.32932 1.02423,-0.28076 0.26597,0.0486 0.93409,0.0577 1.4847,0.0204 0.5506,-0.0374 1.03712,0.0842 1.08115,0.27002 0.11445,0.48326 3.76871,0.73339 4.40172,0.30128 0.2225,-0.15189 0.67344,-0.15815 1.00207,-0.0139 0.43611,0.1914 0.71286,0.13232 1.02446,-0.21874 0.61103,-0.68842 4.73127,-1.08755 5.72037,-0.55413 1.73886,0.93773 2.19821,2.9453 0.98633,4.31065 -0.28066,0.3162 -2.52963,1.56395 -5.14846,2.85639 -2.55754,1.2622 -4.66284,2.36249 -4.67842,2.44508 -0.0436,0.23139 8.44401,-3.81743 9.49965,-4.53156 0.67915,-0.45997 0.98608,-0.87048 1.12769,-1.51084 0.18882,-0.85389 0.21525,-0.87671 0.90525,-0.78187 1.30978,0.18003 1.73738,1.55965 0.85746,2.76651 -0.29909,0.41023 -2.92103,2.50442 -5.86106,4.68135 -6.6951,4.95735 -8.55745,5.97855 -9.21485,5.05286 -0.59639,-0.83979 -1.3912,-0.79893 -3.0298,0.15574 -1.89647,1.10492 -2.18948,1.59545 -1.74305,2.91846 0.3004,0.89026 0.25427,1.07927 -0.42583,1.74482 -0.895964,0.87679 -5.60951,4.12127 -6.205225,4.2712 z m 13.483123,-14.63275 c -0.18882,0.0411 -0.48631,0.23886 -0.66121,0.43925 -0.17479,0.20055 -0.0203,0.16689 0.34329,-0.0748 0.36338,-0.242 0.50662,-0.40577 0.31781,-0.36463 z m -1.68394,0.82712 c -0.19162,0.0419 -0.43746,0.20975 -0.54631,0.37292 -0.10886,0.16318 0.0479,0.12888 0.34839,-0.0762 0.30047,-0.20511 0.38956,-0.33857 0.19792,-0.29668 z M 99.483333,158.75 c -0.423707,0.21816 -1.062889,0.65448 -1.420404,0.9696 -0.357522,0.31513 -0.01087,0.13662 0.77036,-0.39666 0.781224,-0.53329 1.073754,-0.79109 0.650044,-0.57294 z"
       id="path1460"
       inkscape:connector-curvature="0" />
    <path
       style="display:inline;fill:#e400a1;fill-opacity:1;stroke-width:0.26458332"
       d="m 33.488254,169.19697 c 1.07823,0.27144 1.62035,-0.0273 2.56738,-1.4146 0.51573,-0.7555 0.88597,-1.48999 0.82276,-1.6322 -0.0632,-0.1422 -0.66203,-0.47928 -1.33072,-0.74902 -1.02707,-0.41432 -1.54814,-0.84128 -3.35693,-2.75068 -2.30853,-2.43691 -1.70458,-2.31407 0.7488,0.15232 2.44821,2.46116 3.51994,2.9801 4.17444,2.0213 0.1383,-0.2026 0.59063,-0.54976 1.00517,-0.77145 0.41453,-0.2217 0.99784,-0.75942 1.29622,-1.19495 0.29839,-0.43552 0.93101,-1.04419 1.40583,-1.3526 1.35088,-0.87744 1.5791,-1.3741 0.85769,-1.86655 -0.89937,-0.61394 -0.87921,-1.15233 0.0967,-2.58195 1.00685,-1.47495 1.72243,-1.9426 2.33384,-1.52523 0.34205,0.23348 0.53182,0.14299 0.9332,-0.44499 0.28688,-0.42027 0.43626,-0.97351 0.34692,-1.28485 -0.0863,-0.30073 -0.0664,-0.98631 0.0442,-1.52352 0.1106,-0.5372 0.20233,-1.55577 0.20384,-2.26348 0.006,-2.67022 0.40967,-5.49825 1.06361,-7.44588 0.58864,-1.75313 0.75318,-2.0418 1.265,-2.2192 0.67345,-0.23343 1.58915,-1.88372 1.7263,-3.11117 0.0457,-0.40928 0.14454,-0.94332 0.21957,-1.18676 0.075,-0.24346 -0.0632,-0.62611 -0.30713,-0.85037 -0.37151,-0.3415 -0.33233,-0.72756 0.24121,-2.37653 0.96211,-2.76615 0.91543,-2.95351 -1.03208,-4.14357 -1.25515,-0.76696 -2.03336,-1.04011 -3.59875,-1.26311 -1.09852,-0.15649 -2.85351,-0.60104 -3.89998,-0.98788 -3.70955,-1.37131 -4.78813,-1.21954 -5.50546,0.77469 -0.21567,0.59955 -0.65619,1.9118 -0.97893,2.91611 -0.46537,1.44814 -0.72846,1.93147 -1.27134,2.33565 -0.96693,0.71989 -1.59966,2.72984 -1.02549,3.25758 0.30797,0.28312 0.29979,0.92573 -0.0324,2.54068 -0.24458,1.18895 -0.42982,2.33683 -0.41165,2.55081 0.0673,0.79283 -1.15948,2.72806 -2.04144,3.22033 -0.46301,0.25844 -0.96883,0.65592 -1.12404,0.88329 -0.4017,0.58847 -1.98904,0.82091 -2.62788,0.38483 -0.29735,-0.20298 -0.75825,-0.32932 -1.02423,-0.28076 -0.26597,0.0486 -0.93409,0.0577 -1.4847,0.0204 -0.5506,-0.0374 -1.03712,0.0842 -1.08115,0.27002 -0.11445,0.48326 -3.76871,0.73339 -4.40172,0.30128 -0.2225,-0.15189 -0.67344,-0.15815 -1.00207,-0.0139 -0.43611,0.1914 -0.71286,0.13232 -1.02446,-0.21874 -0.61103,-0.68842 -4.73127,-1.08755 -5.72037,-0.55413 -1.7388606,0.93773 -2.1982106,2.9453 -0.9863306,4.31065 0.28066,0.3162 2.5296306,1.56395 5.1484606,2.85639 2.55754,1.2622 4.66284,2.36249 4.67842,2.44508 0.0436,0.23139 -8.44401,-3.81743 -9.4996506,-4.53156 -0.67915,-0.45997 -0.98608,-0.87048 -1.12769,-1.51084 -0.18882,-0.85389 -0.21525,-0.87671 -0.90525,-0.78187 -1.30978,0.18003 -1.73738,1.55965 -0.85746,2.76651 0.29909,0.41023 2.92103,2.50442 5.8610606,4.68135 6.6951,4.95735 8.55745,5.97855 9.21485,5.05286 0.59639,-0.83979 1.3912,-0.79893 3.0298,0.15574 1.89647,1.10492 2.18948,1.59545 1.74305,2.91846 -0.3004,0.89026 -0.25427,1.07927 0.42583,1.74482 0.89597,0.87679 5.60951,4.12127 6.20523,4.2712 z m -13.48313,-14.63275 c 0.18882,0.0411 0.48631,0.23886 0.66121,0.43925 0.17479,0.20055 0.0203,0.16689 -0.34329,-0.0748 -0.36338,-0.242 -0.50662,-0.40577 -0.31781,-0.36463 z m 1.68394,0.82712 c 0.19162,0.0419 0.43746,0.20975 0.54631,0.37292 0.10886,0.16318 -0.0479,0.12888 -0.34839,-0.0762 -0.30047,-0.20511 -0.38956,-0.33857 -0.19792,-0.29668 z m 6.35677,3.35866 c 0.42371,0.21816 1.06289,0.65448 1.4204,0.9696 0.35753,0.31513 0.0109,0.13662 -0.77036,-0.39666 -0.78122,-0.53329 -1.07375,-0.79109 -0.65004,-0.57294 z"
       id="path1460-3"
       inkscape:connector-curvature="0" />
  </g>
  <g
     id="layer4"
     style="display:inline;fill:#ffff00;fill-opacity:1"
     transform="translate(-30.364742,-86.970862)">
    <path
       style="display:inline;fill:#ffff00;fill-opacity:1;stroke-width:0.35029581"
       d="m 46.432947,137.58093 c -3.56316,-0.28638 -7.171436,-0.70848 -9.398283,-1.09945 -2.274262,-0.39928 -2.436589,-0.48406 -2.436589,-1.27249 0,-0.46459 0.31327,-0.99283 0.696161,-1.17385 0.565531,-0.26737 0.701441,-1.15415 0.724209,-4.72531 0.01579,-2.41789 0.319935,-9.39315 0.67669,-15.50059 0.645993,-11.05857 0.898429,-12.46386 2.683429,-14.938074 0.157346,-0.218122 1.155164,-1.764809 2.217323,-3.437081 1.062177,-1.672271 2.100305,-3.225108 2.306959,-3.450749 0.335599,-0.366425 0.887518,-0.371449 5.165835,-0.04703 6.066142,0.459988 21.194564,0.28286 26.835435,-0.314197 2.169733,-0.229654 4.075733,-0.417715 4.235569,-0.417914 0.159801,-1.99e-4 1.171389,1.219141 2.247897,2.709643 1.076508,1.490504 2.218796,2.947958 2.538416,3.238787 0.319619,0.290831 0.698599,0.826222 0.842139,1.189759 0.143488,0.363537 1.006729,1.889006 1.918156,3.389936 1.524074,2.50984 1.695347,3.10427 2.133072,7.40294 0.674637,6.6255 1.400039,17.84679 1.400285,21.66108 1.23e-4,1.98286 0.180166,3.23879 0.464318,3.23879 0.25526,0 0.464107,0.46668 0.464107,1.03707 0,0.93798 -0.144014,1.06302 -1.508375,1.30888 -5.806004,1.04635 -12.955092,1.52007 -17.503247,1.15979 -2.365125,-0.18735 -2.565429,-0.26015 -2.979316,-1.08293 -0.294693,-0.58581 -0.28401,-0.94103 0.03175,-1.05757 0.322356,-0.11896 0.285204,-1.11607 -0.115421,-3.09554 -0.325005,-1.60603 -1.240484,-6.66249 -2.034385,-11.2366 -0.793901,-4.5741 -1.54465,-8.68256 -1.668351,-9.12989 l -0.224897,-0.81334 -2.75947,0.25315 -2.759471,0.25317 -0.245947,1.08896 c -0.135243,0.59893 -0.678163,4.06336 -1.206436,7.69873 -0.528256,3.63537 -1.261288,8.25636 -1.628971,10.26885 -0.367665,2.0125 -0.538973,4.28681 -0.38068,5.05401 0.180447,0.87464 0.103669,1.45973 -0.20583,1.5687 -0.614032,0.21619 -8.636447,0.42223 -10.526187,0.27035 z"
       id="path1559"
       inkscape:connector-curvature="0" />
  </g>
</svg>
