<?xml version="1.0" encoding="UTF-8" standalone="no"?>
<!-- Created with Inkscape (http://www.inkscape.org/) -->

<svg
   xmlns:dc="http://purl.org/dc/elements/1.1/"
   xmlns:cc="http://creativecommons.org/ns#"
   xmlns:rdf="http://www.w3.org/1999/02/22-rdf-syntax-ns#"
   xmlns:svg="http://www.w3.org/2000/svg"
   xmlns="http://www.w3.org/2000/svg"
   xmlns:sodipodi="http://sodipodi.sourceforge.net/DTD/sodipodi-0.dtd"
   xmlns:inkscape="http://www.inkscape.org/namespaces/inkscape"
   width="91.007881mm"
   height="26.732861mm"
   viewBox="0 0 91.007881 26.732861"
   version="1.1"
   id="svg8"
   inkscape:version="0.92.3 (2405546, 2018-03-11)"
   sodipodi:docname="title.svg">
  <defs
     id="defs2" />
  <sodipodi:namedview
     id="base"
     pagecolor="#ffffff"
     bordercolor="#666666"
     borderopacity="1.0"
     inkscape:pageopacity="0.0"
     inkscape:pageshadow="2"
     inkscape:zoom="0.35"
     inkscape:cx="-305.15946"
     inkscape:cy="99.090021"
     inkscape:document-units="mm"
     inkscape:current-layer="layer1"
     showgrid="false"
     fit-margin-top="0"
     fit-margin-left="0"
     fit-margin-right="0"
     fit-margin-bottom="0"
     inkscape:window-width="1853"
     inkscape:window-height="1025"
     inkscape:window-x="67"
     inkscape:window-y="27"
     inkscape:window-maximized="1" />
  <metadata
     id="metadata5">
    <rdf:RDF>
      <cc:Work
         rdf:about="">
        <dc:format>image/svg+xml</dc:format>
        <dc:type
           rdf:resource="http://purl.org/dc/dcmitype/StillImage" />
        <dc:title></dc:title>
      </cc:Work>
    </rdf:RDF>
  </metadata>
  <g
     inkscape:label="Layer 1"
     inkscape:groupmode="layer"
     id="layer1"
     transform="translate(-51.257964,-148.31804)">
    <path
       style="fill:#2484c6;fill-opacity:1;stroke-width:0.26458332"
       d="m 91.498622,174.14816 c 5.3e-4,-1.26822 1.14653,-5.77278 2.2382,-8.7974 1.10896,-3.0725 3.50011,-8.10551 5.24808,-11.04636 0.69142,-1.16327 1.075958,-2.05052 0.88872,-2.05052 -0.18155,0 -1.27706,0.46756 -2.43449,1.03903 l -2.1044,1.03902 1.25677,0.0193 c 1.07396,0.0165 1.25677,0.0963 1.25677,0.54848 0,0.29104 -0.24947,0.77863 -0.55438,1.08354 -0.47457,0.47458 -0.80779,0.54122 -2.3151,0.46302 l -1.76073,-0.0914 -0.52917,1.11614 c -0.29103,0.61387 -0.6694,1.06738 -0.84081,1.0078 -0.17142,-0.0596 -0.75995,0.45019 -1.30787,1.13283 -0.54791,0.68263 -1.98581,2.33049 -3.19534,3.6619 -2.11745,2.33084 -2.20514,2.47826 -2.36058,3.96875 -0.133365,1.27883 -0.0756,1.6507 0.33201,2.13864 0.47683,0.57077 0.52308,0.576 1.37435,0.15521 0.48451,-0.23949 1.65139,-1.13367 2.59307,-1.98706 1.62828,-1.47561 2.21455,-1.70455 2.21455,-0.86481 0,0.54022 -3.3018,3.97806 -5.09401,5.3039 -2.854975,2.11204 -4.166407,1.75351 -4.166407,-1.13903 v -1.45439 l -1.608154,1.48886 c -2.697602,2.49751 -4.511644,3.14813 -5.044561,1.80928 -0.282936,-0.71082 -0.03661,-3.4143 0.463105,-5.0826 0.132198,-0.44134 -0.649994,0.20176 -2.430118,1.99799 -1.443785,1.45684 -3.036209,2.84229 -3.538719,3.07876 -2.540731,1.19562 -2.730645,-1.76408 -0.390103,-6.07957 l 0.896869,-1.65364 H 69.67327 c -0.811062,0 -1.012912,0.15496 -1.809337,1.38906 -0.854904,1.32471 -2.935096,3.51122 -4.461001,4.68899 -0.39103,0.30182 -1.522124,0.93296 -2.513541,1.40254 -1.572674,0.74489 -2.077847,0.85378 -3.960832,0.85378 -2.007538,0 -2.229255,-0.0564 -3.175,-0.80726 -3.020077,-2.39785 -3.339715,-8.38279 -0.736729,-13.79462 1.589097,-3.30387 5.241879,-6.66634 8.116114,-7.47108 0.879137,-0.24614 1.278542,-0.54005 1.636071,-1.20394 0.672873,-1.24945 1.890677,-1.8379 3.441759,-1.66307 4.253507,0.47943 6.081959,6.82916 3.841604,13.34087 -0.282988,0.82252 -0.514525,1.53098 -0.514525,1.57437 0,0.0434 0.422015,0.15805 0.937809,0.25481 0.892774,0.16749 1.018315,0.0918 2.614232,-1.57641 2.029517,-2.12142 4.650539,-3.43491 4.649946,-2.33024 -5.6e-5,0.10055 -0.878545,1.09308 -1.952203,2.20562 -2.518406,2.6096 -4.514034,6.41057 -3.647068,6.94639 0.407151,0.25163 1.306485,-0.61253 4.961502,-4.76746 1.996928,-2.27006 3.999168,-4.35202 4.449425,-4.62659 0.706562,-0.43085 2.803021,-0.71878 2.803021,-0.38496 0,0.0639 -0.66015,1.03632 -1.466997,2.1609 -2.404832,3.35184 -4.606075,7.68402 -4.220969,8.30714 0.25174,0.40732 1.579147,-0.24465 2.848023,-1.39885 1.099851,-1.00045 1.324792,-1.41608 2.178883,-4.02603 0.52383,-1.60073 1.541715,-4.01468 2.261955,-5.36433 1.44121,-2.70066 1.45346,-2.73303 0.9788,-2.58734 -0.1819,0.0558 -0.89627,0.16888 -1.5875,0.25121 -1.119985,0.13341 -1.256775,0.0937 -1.256775,-0.36509 0,-0.72943 0.79047,-1.06258 2.521185,-1.06258 h 1.49764 l 1.83452,-1.96439 c 2.25097,-2.41031 3.85217,-3.29507 5.12825,-2.83364 0.72515,0.26222 1.0474,0.22869 2.08769,-0.21722 3.461338,-1.48371 9.733568,-1.76874 12.491418,-0.56765 1.59887,0.69632 3.08537,2.13777 3.68245,3.5708 0.69664,1.67203 0.5524,4.53704 -0.35824,7.11567 -0.42196,1.19486 -0.85565,2.38083 -0.96374,2.63549 -0.15934,0.37542 -0.0609,0.46302 0.52051,0.46302 0.47531,0 1.15552,-0.39423 2.01779,-1.1695 2.45094,-2.20359 4.94914,-2.87414 6.41429,-1.72166 0.67101,0.52781 0.69089,0.61975 0.5297,2.44739 -0.0921,1.04444 -0.44343,2.58959 -0.7807,3.43367 -0.51503,1.28904 -0.55144,1.55839 -0.22739,1.68274 0.86211,0.33082 1.61815,-0.62655 2.35097,-2.97698 1.52304,-4.88489 4.47267,-10.0712 7.30286,-12.84054 1.71668,-1.67978 2.96539,-2.24703 4.04385,-1.837 2.48559,0.94503 0.10556,5.2128 -7.95816,14.27021 -1.66027,1.86488 -1.91774,2.28781 -1.91462,3.14512 0.005,1.29837 0.23523,2.11464 0.64108,2.27038 0.48487,0.18606 1.84712,-0.54841 3.15911,-1.70327 0.99323,-0.87427 1.25789,-1.34282 1.87312,-3.31607 1.51951,-4.87362 4.47185,-10.06265 7.29937,-12.82937 1.71668,-1.67978 2.96539,-2.24703 4.04385,-1.837 2.48559,0.94503 0.10556,5.2128 -7.95816,14.27021 -1.66027,1.86488 -1.91774,2.28781 -1.91462,3.14512 0.005,1.29837 0.23523,2.11464 0.64108,2.27038 0.55548,0.21316 1.96427,-0.63335 3.75534,-2.25648 1.64598,-1.49165 2.21456,-1.70581 2.21456,-0.83413 0,0.54859 -3.20721,3.86519 -5.09402,5.26776 -2.8482,2.11724 -4.1664,1.76059 -4.1664,-1.12728 v -1.4481 l -1.62837,1.47359 c -1.6102,1.45716 -3.42632,2.53956 -4.261,2.53956 -0.77407,0 -1.25438,-1.07385 -1.25438,-2.80449 v -1.62842 l -1.25677,0.13532 c -1.10976,0.11949 -1.4038,0.29863 -2.51366,1.53139 -1.25216,1.39081 -3.51662,2.7671 -4.54975,2.76521 -0.29884,-5.6e-4 -0.92426,-0.23323 -1.38981,-0.5171 -1.62918,-0.99337 -1.70565,-3.92977 -0.18095,-6.94759 0.34679,-0.68639 0.63053,-1.31146 0.63053,-1.38906 0,-0.0776 -0.3374,-0.14109 -0.74978,-0.14109 -0.60833,0 -0.93356,0.26686 -1.72408,1.41465 -3.74859,5.4428 -11.575258,9.93624 -13.665728,7.84577 -2.1869,-2.1869 2.79012,-6.96552 9.657288,-9.27234 2.03778,-0.68452 2.14444,-0.76168 2.86149,-2.07014 1.09565,-1.99928 1.62895,-4.90577 1.24208,-6.76931 -0.16817,-0.81013 -0.59801,-1.82003 -0.9554,-2.24476 -0.78657,-0.93481 -2.60587,-1.67494 -3.82872,-1.55762 -0.80935,0.0776 -1.07183,0.34431 -2.68908,2.73188 -2.13773,3.15597 -5.893638,10.5959 -7.212788,14.2875 -0.52001,1.4552 -1.12712,3.14497 -1.34913,3.75503 -0.85189,2.34084 -2.48861,3.39526 -2.48789,1.60278 z m 10.699148,-3.43214 c 1.7995,-1.22801 5.21072,-5.02136 4.84469,-5.3874 -0.19086,-0.19085 -2.6752,0.83486 -3.9099,1.6143 -2.54721,1.60798 -4.270538,3.82672 -3.408278,4.38804 0.487048,0.31705 1.463478,0.0743 2.473488,-0.61494 z m -43.58241,-0.086 c 1.623568,-0.80906 3.76473,-2.81592 5.45125,-5.10934 l 1.237003,-1.68213 -0.675661,-0.80298 c -1.583125,-1.88144 -2.473273,-4.40348 -2.731464,-7.739 l -0.163843,-2.11666 -1.535349,1.44067 c -4.250927,3.98881 -7.300321,11.85278 -5.897774,15.20956 0.683026,1.63471 2.109878,1.89915 4.315838,0.79988 z m 57.71584,-0.89432 c 1.48426,-0.7572 1.7302,-1.14905 1.38252,-2.20259 -0.4242,-1.2853 0.24135,-3.30782 1.5505,-4.71175 1.06564,-1.1428 1.13493,-1.69716 0.24735,-1.97887 -0.77094,-0.24468 -2.79357,1.06586 -3.75909,2.43568 -1.63457,2.31896 -2.38293,5.50475 -1.53379,6.52925 0.46958,0.56655 0.88933,0.5523 2.11251,-0.0717 z m 11.10665,-8.72826 c 2.50672,-3.11639 4.24103,-5.94504 4.45556,-7.26706 0.20067,-1.23664 -0.15334,-1.22944 -1.3745,0.028 -1.32973,1.36917 -3.11204,4.30655 -4.36263,7.18992 -1.52213,3.50944 -1.50239,3.5102 1.28157,0.0492 z m 7.14375,0 c 2.50672,-3.11639 4.24103,-5.94504 4.45556,-7.26706 0.20067,-1.23664 -0.15334,-1.22944 -1.3745,0.028 -1.32973,1.36917 -3.11204,4.30655 -4.36263,7.18992 -1.52213,3.50944 -1.50239,3.5102 1.28157,0.0492 z m -45.189398,-2.2214 c 1.77249,-2.32315 1.9242,-2.82822 0.8493,-2.82752 -0.56795,3.7e-4 -0.88332,0.2471 -1.43731,1.12448 -0.81092,1.28433 -2.86716,5.38299 -2.85223,5.68533 0.0136,0.27504 1.54112,-1.49319 3.44024,-3.98229 z m -22.547103,1.60231 c 0.692987,-1.85217 1.189378,-5.25447 0.967191,-6.62918 -0.444093,-2.74767 -1.697714,-4.19761 -2.781354,-3.21693 -1.649786,1.49303 -1.466412,7.46613 0.318565,10.37675 0.29004,0.47294 0.628142,0.85989 0.751338,0.85989 0.123198,0 0.458115,-0.62574 0.74426,-1.39053 z m 24.796343,-6.29999 c 0.28476,-0.46075 -0.0396,-0.55833 -0.40244,-0.12108 -0.20869,0.25146 -0.22877,0.40327 -0.0533,0.40327 0.15475,0 0.35984,-0.12698 0.45576,-0.28219 z"
       id="path826-3"
       inkscape:connector-curvature="0" />
  </g>
</svg>
