<?xml version="1.0" encoding="UTF-8" standalone="no"?>
<svg
   xmlns:dc="http://purl.org/dc/elements/1.1/"
   xmlns:cc="http://creativecommons.org/ns#"
   xmlns:rdf="http://www.w3.org/1999/02/22-rdf-syntax-ns#"
   xmlns:svg="http://www.w3.org/2000/svg"
   xmlns="http://www.w3.org/2000/svg"
   xmlns:sodipodi="http://sodipodi.sourceforge.net/DTD/sodipodi-0.dtd"
   xmlns:inkscape="http://www.inkscape.org/namespaces/inkscape"
   id="svg851"
   version="1.1"
   viewBox="0 0 88.125701 70.477944"
   height="16.648333pc"
   width="20.817095pc"
   sodipodi:docname="top_b_sweatshirt_plain.svg"
   inkscape:version="0.92.3 (2405546, 2018-03-11)">
  <sodipodi:namedview
     pagecolor="#ffffff"
     bordercolor="#666666"
     borderopacity="1"
     objecttolerance="10"
     gridtolerance="10"
     guidetolerance="10"
     inkscape:pageopacity="0"
     inkscape:pageshadow="2"
     inkscape:window-width="1853"
     inkscape:window-height="1025"
     id="namedview14"
     showgrid="false"
     inkscape:zoom="1.475"
     inkscape:cx="102.08285"
     inkscape:cy="147.13687"
     inkscape:window-x="67"
     inkscape:window-y="27"
     inkscape:window-maximized="1"
     inkscape:current-layer="svg851"
     fit-margin-top="1"
     fit-margin-left="1"
     fit-margin-right="1"
     fit-margin-bottom="1" />
  <defs
     id="defs845" />
  <metadata
     id="metadata848">
    <rdf:RDF>
      <cc:Work
         rdf:about="">
        <dc:format>image/svg+xml</dc:format>
        <dc:type
           rdf:resource="http://purl.org/dc/dcmitype/StillImage" />
        <dc:title></dc:title>
      </cc:Work>
    </rdf:RDF>
  </metadata>
  <g
     style="display:none"
     transform="translate(-19.359026,-160.29462)"
     id="layer1">
    <path
       id="path1436"
       d="m 13.117557,207.20988 9.132127,-14.22383 c 5.022679,-7.82305 10.967109,-17.2087 13.209846,-20.85692 l 4.077715,-6.63308 9.62331,0.87001 c 12.136415,1.09717 16.881892,1.09172 28.883766,-0.0311 l 9.637127,-0.90347 3.035525,5.29185 c 1.669533,2.91051 7.540789,12.22417 13.047267,20.69709 l 10.01173,15.40523 0.50577,9.9375 c -4.32707,0.53419 -8.44684,-4.78593 -17.108492,-15.94665 -7.514117,-9.68228 -12.57756,-15.11197 -13.140685,-14.09134 -0.50385,0.91324 -1.687983,6.30023 -2.631384,11.97114 l -1.715273,10.31065 6.304861,22.68355 c 12.806962,46.07666 16.254063,59.33737 15.837383,60.9253 -0.26557,1.01206 -2.589404,1.46873 -6.153457,1.20919 v 3.7e-4 L 89.947968,293.40805 77.45914,265.11129 C 70.590265,249.5481 64.970295,236.28033 64.970295,235.62735 c 0,-0.65297 -0.463997,-1.18561 -1.031071,-1.18369 -0.843124,0.002 -15.399536,32.22844 -24.372055,53.95577 -2.047782,4.95885 -2.383855,5.15536 -8.815199,5.15536 h -6.686248 l 3.17542,-11.34175 c 1.746479,-6.23798 6.980556,-25.26119 11.631268,-42.27384 l 8.455839,-30.9321 -1.686144,-10.31067 c -0.927381,-5.6709 -2.090321,-11.09115 -2.584309,-12.04506 -0.564862,-1.09079 -5.426889,4.1384 -13.101865,14.09128 -8.216815,10.65552 -12.33356,16.05083 -16.48863,16.07374 m 43.386965,-55.60247 c -12.363648,-6.3539 -11.796783,-24.1211 0.939384,-29.44258 9.395373,-3.92568 19.722536,2.06892 21.697143,12.59455 2.202226,11.73886 -12.003938,22.31234 -22.636527,16.84803 z"
       style="fill:#000000;stroke-width:1.37475872"
       inkscape:connector-curvature="0" />
  </g>
  <g
     style="display:inline"
     id="layer3"
     transform="translate(-19.359026,-32.627984)">
    <path
       style="fill:#80a600;fill-opacity:1;stroke-width:1.63743579"
       d="m 148.57812,139.31836 c -12.14251,4.14469 -15.88625,8.2706 -19.48632,17.69726 l -2.70703,7.08985 h -15.33204 c -17.293174,0 -21.884761,2.376 -21.884761,11.32812 0,9.70603 0.481991,9.95899 19.005861,9.95899 h 17.01953 v 13.88086 c 0,13.04461 0.2494,14.04353 4.14453,16.5957 2.27956,1.4936 4.54501,2.31437 5.03516,1.82422 0.49002,-0.49008 -0.63882,-1.37525 -2.50782,-1.96875 -1.86906,-0.59319 -3.39843,-1.81009 -3.39843,-2.70313 0,-0.89303 0.66777,-1.20946 1.48437,-0.70507 0.8163,0.50469 1.07203,-0.66551 0.56641,-2.59961 -0.82527,-3.15583 -0.43281,-3.40582 3.83594,-2.44922 11.45379,2.56671 21.54943,3.01515 25.0957,1.11719 4.20079,-2.24818 4.51991,-2.1033 5.29492,2.38867 0.47208,2.7361 -0.51211,3.39058 -5.98437,3.97851 l -6.54883,0.70313 6.54883,0.93359 6.54882,0.9336 1.01758,24.5625 c 0.55915,13.50882 1.11218,46.40274 1.22852,73.09765 l 0.21093,48.53516 3.6836,0.91015 c 2.02637,0.49993 17.97304,1.82028 35.43555,2.93555 25.43136,1.62547 38.59301,1.61607 66.13671,-0.0488 18.91296,-1.14318 35.88568,-2.63319 37.7168,-3.31054 3.24766,-1.20136 3.33766,-2.57371 3.64649,-55.94336 0.39756,-68.64865 1.75766,-91.48059 5.46484,-91.7461 2.1311,-0.15249 2.07033,-0.34125 -0.30664,-0.95703 -4.38392,-1.13588 -3.07793,-8.12724 1.32226,-7.07812 3.86543,0.92144 15.35577,0.88012 24.5625,-0.0899 L 351.97656,207.5 351.1543,183.75586 c -0.7195,-20.73777 -1.27779,-24.46702 -4.41016,-29.47266 -3.53593,-5.65062 -5.62917,-7.73595 -14.91992,-10.66211 l -91.78711,89.4961 -87.89258,-90.14063 c -17.45826,4.87809 -19.04458,10.12883 -21.23242,40.94141 -1.01477,14.29139 -2.43663,26.54799 -3.16016,27.23828 -1.24641,1.1891 -0.4433,-32.01772 0.90039,-37.22461 0.52722,-2.04321 -2.18842,-2.53384 -16.15039,-2.92187 l -16.7832,-0.4668 v 6.60547 c 0,3.6339 -0.736137,6.60742 -1.636719,6.60742 -0.900586,0 -1.69917,-0.55308 -1.773437,-1.22852 -0.07408,-0.67544 -0.447617,-3.10486 -0.830078,-5.40039 -1.300562,-7.79904 1.949726,-9.56688 18.158204,-9.87695 15.64004,-0.29941 20.46875,-1.6724 20.46875,-5.81836 0,-4.37432 5.22484,-13.82865 9.01562,-16.3125 1.3538,-0.88702 5.77327,-2.48812 11.11133,-4.10352 z m 187.11133,0.53125 -1.73828,1.69727 c 6.42608,2.10332 9.42392,3.98309 12.42774,7.40429 2.62922,2.99442 4.77929,6.72937 4.77929,8.29883 0,1.56946 1.17667,4.53403 2.61524,6.58789 2.40203,3.42956 3.77378,3.71754 16.78515,3.53125 18.33463,-0.26296 18.26172,-0.26972 18.26172,1.65039 0,0.99305 -7.13585,1.63672 -18.13086,1.63672 h -18.1289 l 0.73633,21.34766 0.73828,21.34961 -5.12305,2.73632 c -3.27805,1.75142 -9.54271,2.83819 -17.40234,3.01954 l -12.28125,0.2832 -0.31641,8.79101 c -0.96229,26.77327 -1.16751,99.54396 -0.2832,100.42969 0.57035,0.57128 7.44693,1.36378 15.28125,1.76172 7.83425,0.39794 14.82506,1.0827 15.53515,1.52148 1.84332,1.13923 3.4383,10.19526 2.3125,13.12891 -1.79009,4.66507 -3.87304,2.47225 -3.87304,-4.07617 v -6.54883 h -15.45899 c -8.50245,0 -15.84473,0.62082 -16.31445,1.38086 -0.46973,0.75992 -0.0857,4.15998 0.85156,7.55469 0.93723,3.39464 1.21779,9.70745 0.62305,14.02929 -1.22228,8.88703 -3.25582,10.11319 -18.00586,10.85157 -4.50298,0.22539 -13.71437,0.78422 -20.46875,1.24218 -15.13405,1.02849 -61.98409,1.01378 -78.59571,-0.0234 -6.75444,-0.42176 -15.59776,-0.95604 -19.65039,-1.1875 -4.05269,-0.2314 -9.25251,-0.98543 -11.55664,-1.67578 -4.16755,-1.24877 -4.1861,-1.33525 -3.5957,-16.71289 l 0.5918,-15.45704 H 149.8418 c -9.88366,0 -16.46289,-0.65363 -16.46289,-1.63672 0,-0.93282 4.84455,-1.63867 11.25781,-1.63867 6.19158,0 13.58839,-0.46517 16.4375,-1.03515 l 5.17969,-1.03711 -0.8711,-33.75781 C 164.90337,276.72913 164.32265,251.95772 164.0918,240.25 l -0.41992,-21.28711 -13.91797,-0.11523 -13.91797,-0.11719 12.68945,0.59375 12.69141,0.5957 v 20.29297 c 0,11.16088 0.60329,21.99705 1.34179,24.08203 0.73827,2.08493 1.02538,17.23804 0.63672,33.67383 l -0.70703,29.88281 -14.14453,0.0254 c -15.10119,0.0268 -19.32044,1.34679 -17.71094,5.54102 0.82496,2.14984 3.81356,2.62109 16.61328,2.62109 h 15.60743 v 4.28906 4.28907 l -15.55469,-0.67969 c -14.0147,-0.61293 -15.55664,-0.39525 -15.55664,2.20117 0,2.52179 1.99464,2.9393 15.96484,3.34961 l 15.96485,0.46875 -0.49219,8.23828 c -0.47746,7.99746 -0.33433,8.29384 4.91211,10.18946 2.97226,1.07393 14.19485,2.3488 24.9375,2.83398 10.74265,0.48495 19.89067,1.24223 20.33008,1.68164 h 0.002 c 1.37278,1.37279 42.60191,0.86712 65.75,-0.80664 39.68401,-2.86933 40.93555,-3.34893 40.93555,-15.70313 v -7.25195 h 16.19921 c 17.62564,0 18.1875,-0.30796 18.1875,-9.95898 0,-8.68391 -4.72239,-11.32813 -20.22851,-11.32813 h -13.67774 l -0.93359,-11.87109 c -0.9241,-11.7347 0.0876,-64.13172 1.63672,-84.73828 l 0.80078,-10.64258 10.91602,-0.043 c 7.99949,-0.0299 12.43839,-0.93785 16.61132,-3.39453 5.67765,-3.3426 5.69399,-3.38722 5.75586,-15.51367 0.0334,-6.68928 0.21696,-13.05812 0.40821,-14.15235 0.23981,-1.37247 5.55443,-2.13325 17.13281,-2.45507 l 16.7832,-0.4668 0.50391,-8.85156 c 0.33989,-5.97213 -0.19391,-9.29269 -1.63867,-10.20899 -1.17767,-0.74692 -9.2322,-1.37034 -17.90039,-1.38281 l -15.75977,-0.0254 -1.01172,-5.04883 c -1.35094,-6.75475 -6.7647,-14.09126 -12.64258,-17.13086 -0.92952,-0.48067 -2.91034,-1.21569 -5.5,-2.07617 z m -223.48242,32.44531 c 14.46432,0 14.83808,0.0972 14.32813,3.68555 -0.49096,3.45721 -1.40673,3.71252 -14.85157,4.15625 l -14.328121,0.47266 v -4.15626 c 0,-4.14487 0.04162,-4.1582 14.851561,-4.1582 z m 258.71485,0 c 14.46433,0 14.83745,0.0972 14.32812,3.68555 -0.4865,3.42558 -1.44911,3.71737 -13.69922,4.1543 -13.88486,0.49547 -15.48047,-0.004 -15.48047,-4.83789 0,-2.69005 1.54238,-3.00196 14.85157,-3.00196 z m -227.7168,42.77344 c -1.03875,0 -2.07918,0.10282 -2.86719,0.30859 -1.57602,0.41155 -0.28486,0.75 2.86719,0.75 3.15203,0 4.44125,-0.33783 2.86523,-0.75 -0.78801,-0.20577 -1.82648,-0.30859 -2.86523,-0.30859 z m 188.30469,1.62695 c -1.33554,0 -2.67239,0.0977 -3.68555,0.29297 -2.02632,0.39027 -0.36708,0.70899 3.68555,0.70899 4.05251,0 5.7099,-0.31848 3.68359,-0.70899 -1.01319,-0.19525 -2.34806,-0.29297 -3.68359,-0.29297 z m 0.81835,119.34375 c 13.75416,0 13.91797,0.0483 13.91797,4.09375 0,4.01809 -0.23612,4.09375 -12.82617,4.09375 -13.64876,0 -15.00976,-0.47053 -15.00976,-5.18554 0,-2.6752 1.51314,-3.00196 13.91796,-3.00196 z"
       transform="scale(0.26458334)"
       id="path1527"
       inkscape:connector-curvature="0" />
  </g>
  <g
     style="display:none"
     id="layer2"
     transform="translate(-19.359026,-32.627984)">
    <path
       id="path1460"
       d="m 94.040917,169.19697 c -1.078234,0.27144 -1.620356,-0.0273 -2.567386,-1.4146 -0.515723,-0.7555 -0.885967,-1.48999 -0.822753,-1.6322 0.06322,-0.1422 0.662024,-0.47928 1.330715,-0.74902 1.027075,-0.41432 1.548138,-0.84128 3.356935,-2.75068 2.308524,-2.43691 1.704576,-2.31407 -0.748809,0.15232 -2.448206,2.46116 -3.519932,2.9801 -4.174438,2.0213 -0.138298,-0.2026 -0.590624,-0.54976 -1.005164,-0.77145 -0.414538,-0.2217 -0.997846,-0.75942 -1.296224,-1.19495 -0.298386,-0.43552 -0.931009,-1.04419 -1.405826,-1.3526 -1.350881,-0.87744 -1.579103,-1.3741 -0.857698,-1.86655 0.899374,-0.61394 0.87921,-1.15233 -0.09668,-2.58195 -1.006842,-1.47495 -1.722421,-1.9426 -2.333839,-1.52523 -0.342046,0.23348 -0.531819,0.14299 -0.933194,-0.44499 -0.286886,-0.42027 -0.436263,-0.97351 -0.346921,-1.28485 0.08631,-0.30073 0.06642,-0.98631 -0.04419,-1.52352 -0.110603,-0.5372 -0.202333,-1.55577 -0.203837,-2.26348 -0.0057,-2.67022 -0.409676,-5.49825 -1.063611,-7.44588 -0.588648,-1.75313 -0.753188,-2.0418 -1.265006,-2.2192 -0.673452,-0.23343 -1.589147,-1.88372 -1.726293,-3.11117 -0.04574,-0.40928 -0.144544,-0.94332 -0.219579,-1.18676 -0.07502,-0.24346 0.06317,-0.62611 0.307138,-0.85037 0.371507,-0.3415 0.33233,-0.72756 -0.24121,-2.37653 -0.96211,-2.76615 -0.915437,-2.95351 1.032076,-4.14357 1.255146,-0.76696 2.033359,-1.04011 3.598749,-1.26311 1.098517,-0.15649 2.853509,-0.60104 3.899981,-0.98788 3.70955,-1.37131 4.788127,-1.21954 5.505465,0.77469 0.215666,0.59955 0.65618,1.9118 0.978921,2.91611 0.465375,1.44814 0.728464,1.93147 1.271343,2.33565 0.96693,0.71989 1.599661,2.72984 1.025486,3.25758 -0.307964,0.28312 -0.299788,0.92573 0.03243,2.54068 0.24458,1.18895 0.42983,2.33683 0.41166,2.55081 -0.06731,0.79283 1.159472,2.72806 2.041436,3.22033 0.463008,0.25844 0.968827,0.65592 1.124039,0.88329 0.401703,0.58847 1.989037,0.82091 2.627877,0.38483 0.29735,-0.20298 0.75825,-0.32932 1.02423,-0.28076 0.26597,0.0486 0.93409,0.0577 1.4847,0.0204 0.5506,-0.0374 1.03712,0.0842 1.08115,0.27002 0.11445,0.48326 3.76871,0.73339 4.40172,0.30128 0.2225,-0.15189 0.67344,-0.15815 1.00207,-0.0139 0.43611,0.1914 0.71286,0.13232 1.02446,-0.21874 0.61103,-0.68842 4.73127,-1.08755 5.72037,-0.55413 1.73886,0.93773 2.19821,2.9453 0.98633,4.31065 -0.28066,0.3162 -2.52963,1.56395 -5.14846,2.85639 -2.55754,1.2622 -4.66284,2.36249 -4.67842,2.44508 -0.0436,0.23139 8.44401,-3.81743 9.49965,-4.53156 0.67915,-0.45997 0.98608,-0.87048 1.12769,-1.51084 0.18882,-0.85389 0.21525,-0.87671 0.90525,-0.78187 1.30978,0.18003 1.73738,1.55965 0.85746,2.76651 -0.29909,0.41023 -2.92103,2.50442 -5.86106,4.68135 -6.6951,4.95735 -8.55745,5.97855 -9.21485,5.05286 -0.59639,-0.83979 -1.3912,-0.79893 -3.0298,0.15574 -1.89647,1.10492 -2.18948,1.59545 -1.74305,2.91846 0.3004,0.89026 0.25427,1.07927 -0.42583,1.74482 -0.895964,0.87679 -5.60951,4.12127 -6.205225,4.2712 z m 13.483123,-14.63275 c -0.18882,0.0411 -0.48631,0.23886 -0.66121,0.43925 -0.17479,0.20055 -0.0203,0.16689 0.34329,-0.0748 0.36338,-0.242 0.50662,-0.40577 0.31781,-0.36463 z m -1.68394,0.82712 c -0.19162,0.0419 -0.43746,0.20975 -0.54631,0.37292 -0.10886,0.16318 0.0479,0.12888 0.34839,-0.0762 0.30047,-0.20511 0.38956,-0.33857 0.19792,-0.29668 z M 99.483333,158.75 c -0.423707,0.21816 -1.062889,0.65448 -1.420404,0.9696 -0.357522,0.31513 -0.01087,0.13662 0.77036,-0.39666 0.781224,-0.53329 1.073754,-0.79109 0.650044,-0.57294 z"
       style="display:inline;fill:#e400a1;fill-opacity:1;stroke-width:0.26458332"
       inkscape:connector-curvature="0" />
    <path
       id="path1460-3"
       d="m 33.488254,169.19697 c 1.07823,0.27144 1.62035,-0.0273 2.56738,-1.4146 0.51573,-0.7555 0.88597,-1.48999 0.82276,-1.6322 -0.0632,-0.1422 -0.66203,-0.47928 -1.33072,-0.74902 -1.02707,-0.41432 -1.54814,-0.84128 -3.35693,-2.75068 -2.30853,-2.43691 -1.70458,-2.31407 0.7488,0.15232 2.44821,2.46116 3.51994,2.9801 4.17444,2.0213 0.1383,-0.2026 0.59063,-0.54976 1.00517,-0.77145 0.41453,-0.2217 0.99784,-0.75942 1.29622,-1.19495 0.29839,-0.43552 0.93101,-1.04419 1.40583,-1.3526 1.35088,-0.87744 1.5791,-1.3741 0.85769,-1.86655 -0.89937,-0.61394 -0.87921,-1.15233 0.0967,-2.58195 1.00685,-1.47495 1.72243,-1.9426 2.33384,-1.52523 0.34205,0.23348 0.53182,0.14299 0.9332,-0.44499 0.28688,-0.42027 0.43626,-0.97351 0.34692,-1.28485 -0.0863,-0.30073 -0.0664,-0.98631 0.0442,-1.52352 0.1106,-0.5372 0.20233,-1.55577 0.20384,-2.26348 0.006,-2.67022 0.40967,-5.49825 1.06361,-7.44588 0.58864,-1.75313 0.75318,-2.0418 1.265,-2.2192 0.67345,-0.23343 1.58915,-1.88372 1.7263,-3.11117 0.0457,-0.40928 0.14454,-0.94332 0.21957,-1.18676 0.075,-0.24346 -0.0632,-0.62611 -0.30713,-0.85037 -0.37151,-0.3415 -0.33233,-0.72756 0.24121,-2.37653 0.96211,-2.76615 0.91543,-2.95351 -1.03208,-4.14357 -1.25515,-0.76696 -2.03336,-1.04011 -3.59875,-1.26311 -1.09852,-0.15649 -2.85351,-0.60104 -3.89998,-0.98788 -3.70955,-1.37131 -4.78813,-1.21954 -5.50546,0.77469 -0.21567,0.59955 -0.65619,1.9118 -0.97893,2.91611 -0.46537,1.44814 -0.72846,1.93147 -1.27134,2.33565 -0.96693,0.71989 -1.59966,2.72984 -1.02549,3.25758 0.30797,0.28312 0.29979,0.92573 -0.0324,2.54068 -0.24458,1.18895 -0.42982,2.33683 -0.41165,2.55081 0.0673,0.79283 -1.15948,2.72806 -2.04144,3.22033 -0.46301,0.25844 -0.96883,0.65592 -1.12404,0.88329 -0.4017,0.58847 -1.98904,0.82091 -2.62788,0.38483 -0.29735,-0.20298 -0.75825,-0.32932 -1.02423,-0.28076 -0.26597,0.0486 -0.93409,0.0577 -1.4847,0.0204 -0.5506,-0.0374 -1.03712,0.0842 -1.08115,0.27002 -0.11445,0.48326 -3.76871,0.73339 -4.40172,0.30128 -0.2225,-0.15189 -0.67344,-0.15815 -1.00207,-0.0139 -0.43611,0.1914 -0.71286,0.13232 -1.02446,-0.21874 -0.61103,-0.68842 -4.73127,-1.08755 -5.72037,-0.55413 -1.7388606,0.93773 -2.1982106,2.9453 -0.9863306,4.31065 0.28066,0.3162 2.5296306,1.56395 5.1484606,2.85639 2.55754,1.2622 4.66284,2.36249 4.67842,2.44508 0.0436,0.23139 -8.44401,-3.81743 -9.4996506,-4.53156 -0.67915,-0.45997 -0.98608,-0.87048 -1.12769,-1.51084 -0.18882,-0.85389 -0.21525,-0.87671 -0.90525,-0.78187 -1.30978,0.18003 -1.73738,1.55965 -0.85746,2.76651 0.29909,0.41023 2.92103,2.50442 5.8610606,4.68135 6.6951,4.95735 8.55745,5.97855 9.21485,5.05286 0.59639,-0.83979 1.3912,-0.79893 3.0298,0.15574 1.89647,1.10492 2.18948,1.59545 1.74305,2.91846 -0.3004,0.89026 -0.25427,1.07927 0.42583,1.74482 0.89597,0.87679 5.60951,4.12127 6.20523,4.2712 z m -13.48313,-14.63275 c 0.18882,0.0411 0.48631,0.23886 0.66121,0.43925 0.17479,0.20055 0.0203,0.16689 -0.34329,-0.0748 -0.36338,-0.242 -0.50662,-0.40577 -0.31781,-0.36463 z m 1.68394,0.82712 c 0.19162,0.0419 0.43746,0.20975 0.54631,0.37292 0.10886,0.16318 -0.0479,0.12888 -0.34839,-0.0762 -0.30047,-0.20511 -0.38956,-0.33857 -0.19792,-0.29668 z m 6.35677,3.35866 c 0.42371,0.21816 1.06289,0.65448 1.4204,0.9696 0.35753,0.31513 0.0109,0.13662 -0.77036,-0.39666 -0.78122,-0.53329 -1.07375,-0.79109 -0.65004,-0.57294 z"
       style="display:inline;fill:#e400a1;fill-opacity:1;stroke-width:0.26458332"
       inkscape:connector-curvature="0" />
  </g>
  <g
     style="display:none"
     id="layer4"
     transform="translate(-19.359026,-32.627984)">
    <path
       id="path1559"
       d="m 46.432947,137.58093 c -3.56316,-0.28638 -7.171436,-0.70848 -9.398283,-1.09945 -2.274262,-0.39928 -2.436589,-0.48406 -2.436589,-1.27249 0,-0.46459 0.31327,-0.99283 0.696161,-1.17385 0.565531,-0.26737 0.701441,-1.15415 0.724209,-4.72531 0.01579,-2.41789 0.319935,-9.39315 0.67669,-15.50059 0.645993,-11.05857 0.898429,-12.46386 2.683429,-14.938074 0.157346,-0.218122 1.155164,-1.764809 2.217323,-3.437081 1.062177,-1.672271 2.100305,-3.225108 2.306959,-3.450749 0.335599,-0.366425 0.887518,-0.371449 5.165835,-0.04703 6.066142,0.459988 21.194564,0.28286 26.835435,-0.314197 2.169733,-0.229654 4.075733,-0.417715 4.235569,-0.417914 0.159801,-1.99e-4 1.171389,1.219141 2.247897,2.709643 1.076508,1.490504 2.218796,2.947958 2.538416,3.238787 0.319619,0.290831 0.698599,0.826222 0.842139,1.189759 0.143488,0.363537 1.006729,1.889006 1.918156,3.389936 1.524074,2.50984 1.695347,3.10427 2.133072,7.40294 0.674637,6.6255 1.400039,17.84679 1.400285,21.66108 1.23e-4,1.98286 0.180166,3.23879 0.464318,3.23879 0.25526,0 0.464107,0.46668 0.464107,1.03707 0,0.93798 -0.144014,1.06302 -1.508375,1.30888 -5.806004,1.04635 -12.955092,1.52007 -17.503247,1.15979 -2.365125,-0.18735 -2.565429,-0.26015 -2.979316,-1.08293 -0.294693,-0.58581 -0.28401,-0.94103 0.03175,-1.05757 0.322356,-0.11896 0.285204,-1.11607 -0.115421,-3.09554 -0.325005,-1.60603 -1.240484,-6.66249 -2.034385,-11.2366 -0.793901,-4.5741 -1.54465,-8.68256 -1.668351,-9.12989 l -0.224897,-0.81334 -2.75947,0.25315 -2.759471,0.25317 -0.245947,1.08896 c -0.135243,0.59893 -0.678163,4.06336 -1.206436,7.69873 -0.528256,3.63537 -1.261288,8.25636 -1.628971,10.26885 -0.367665,2.0125 -0.538973,4.28681 -0.38068,5.05401 0.180447,0.87464 0.103669,1.45973 -0.20583,1.5687 -0.614032,0.21619 -8.636447,0.42223 -10.526187,0.27035 z"
       style="display:inline;fill:#159ae5;fill-opacity:1;stroke-width:0.35029581"
       inkscape:connector-curvature="0" />
  </g>
  <flowRoot
     xml:space="preserve"
     id="flowRoot827"
     style="font-style:normal;font-weight:normal;font-size:8px;line-height:1.25;font-family:sans-serif;letter-spacing:0px;word-spacing:0px;fill:#000000;fill-opacity:1;stroke:none"
     transform="matrix(0.26458334,0,0,0.26458334,-14.336427,-30.296063)"><flowRegion
       id="flowRegion829"><rect
         id="rect831"
         width="58.305084"
         height="56.949154"
         x="248.13559"
         y="303.72882" /></flowRegion><flowPara
       id="flowPara833"
       style="font-size:42.66666794px;fill:#fb27ec;fill-opacity:1">C</flowPara></flowRoot></svg>
