<?xml version="1.0" encoding="UTF-8" standalone="no"?>
<svg
   xmlns:dc="http://purl.org/dc/elements/1.1/"
   xmlns:cc="http://creativecommons.org/ns#"
   xmlns:rdf="http://www.w3.org/1999/02/22-rdf-syntax-ns#"
   xmlns:svg="http://www.w3.org/2000/svg"
   xmlns="http://www.w3.org/2000/svg"
   xmlns:sodipodi="http://sodipodi.sourceforge.net/DTD/sodipodi-0.dtd"
   xmlns:inkscape="http://www.inkscape.org/namespaces/inkscape"
   id="svg851"
   version="1.1"
   viewBox="0 0 127 169.33334"
   height="40pc"
   width="30pc"
   sodipodi:docname="top_b_pullover.svg"
   inkscape:version="0.92.3 (2405546, 2018-03-11)">
  <sodipodi:namedview
     pagecolor="#ffffff"
     bordercolor="#666666"
     borderopacity="1"
     objecttolerance="10"
     gridtolerance="10"
     guidetolerance="10"
     inkscape:pageopacity="0"
     inkscape:pageshadow="2"
     inkscape:window-width="1853"
     inkscape:window-height="1025"
     id="namedview14"
     showgrid="false"
     inkscape:zoom="1.475"
     inkscape:cx="296.60675"
     inkscape:cy="397.4452"
     inkscape:window-x="67"
     inkscape:window-y="27"
     inkscape:window-maximized="1"
     inkscape:current-layer="svg851" />
  <defs
     id="defs845" />
  <metadata
     id="metadata848">
    <rdf:RDF>
      <cc:Work
         rdf:about="">
        <dc:format>image/svg+xml</dc:format>
        <dc:type
           rdf:resource="http://purl.org/dc/dcmitype/StillImage" />
        <dc:title></dc:title>
      </cc:Work>
    </rdf:RDF>
  </metadata>
  <g
     style="display:none"
     transform="translate(0,-127.66664)"
     id="layer1">
    <path
       id="path1436"
       d="m 13.117557,207.20988 9.132127,-14.22383 c 5.022679,-7.82305 10.967109,-17.2087 13.209846,-20.85692 l 4.077715,-6.63308 9.62331,0.87001 c 12.136415,1.09717 16.881892,1.09172 28.883766,-0.0311 l 9.637127,-0.90347 3.035525,5.29185 c 1.669533,2.91051 7.540789,12.22417 13.047267,20.69709 l 10.01173,15.40523 0.50577,9.9375 c -4.32707,0.53419 -8.44684,-4.78593 -17.108492,-15.94665 -7.514117,-9.68228 -12.57756,-15.11197 -13.140685,-14.09134 -0.50385,0.91324 -1.687983,6.30023 -2.631384,11.97114 l -1.715273,10.31065 6.304861,22.68355 c 12.806962,46.07666 16.254063,59.33737 15.837383,60.9253 -0.26557,1.01206 -2.589404,1.46873 -6.153457,1.20919 v 3.7e-4 L 89.947968,293.40805 77.45914,265.11129 C 70.590265,249.5481 64.970295,236.28033 64.970295,235.62735 c 0,-0.65297 -0.463997,-1.18561 -1.031071,-1.18369 -0.843124,0.002 -15.399536,32.22844 -24.372055,53.95577 -2.047782,4.95885 -2.383855,5.15536 -8.815199,5.15536 h -6.686248 l 3.17542,-11.34175 c 1.746479,-6.23798 6.980556,-25.26119 11.631268,-42.27384 l 8.455839,-30.9321 -1.686144,-10.31067 c -0.927381,-5.6709 -2.090321,-11.09115 -2.584309,-12.04506 -0.564862,-1.09079 -5.426889,4.1384 -13.101865,14.09128 -8.216815,10.65552 -12.33356,16.05083 -16.48863,16.07374 m 43.386965,-55.60247 c -12.363648,-6.3539 -11.796783,-24.1211 0.939384,-29.44258 9.395373,-3.92568 19.722536,2.06892 21.697143,12.59455 2.202226,11.73886 -12.003938,22.31234 -22.636527,16.84803 z"
       style="fill:#000000;stroke-width:1.37475872" />
  </g>
  <g
     style="display:inline"
     id="layer3">
    <path
       style="fill:#80a600;fill-opacity:1;stroke-width:1.63743579"
       d="M 148.57812 139.31836 C 136.43561 143.46305 132.69187 147.58896 129.0918 157.01562 L 126.38477 164.10547 L 111.05273 164.10547 C 93.759556 164.10547 89.167969 166.48147 89.167969 175.43359 C 89.167969 185.13962 89.64996 185.39258 108.17383 185.39258 L 125.19336 185.39258 L 125.19336 199.27344 C 125.19336 212.31805 125.44276 213.31697 129.33789 215.86914 C 131.61745 217.36274 133.8829 218.18351 134.37305 217.69336 C 134.86307 217.20328 133.73423 216.31811 131.86523 215.72461 C 129.99617 215.13142 128.4668 213.91452 128.4668 213.02148 C 128.4668 212.12845 129.13457 211.81202 129.95117 212.31641 C 130.76747 212.8211 131.0232 211.6509 130.51758 209.7168 C 129.69231 206.56097 130.08477 206.31098 134.35352 207.26758 C 145.80731 209.83429 155.90295 210.28273 159.44922 208.38477 C 163.65001 206.13659 163.96913 206.28147 164.74414 210.77344 C 165.21622 213.50954 164.23203 214.16402 158.75977 214.75195 L 152.21094 215.45508 L 158.75977 216.38867 L 165.30859 217.32227 L 166.32617 241.88477 C 166.88532 255.39359 167.43835 288.28751 167.55469 314.98242 L 167.76562 363.51758 L 171.44922 364.42773 C 173.47559 364.92766 189.42226 366.24801 206.88477 367.36328 C 232.31613 368.98875 245.47778 368.97935 273.02148 367.31445 C 291.93444 366.17127 308.90716 364.68126 310.73828 364.00391 C 313.98594 362.80255 314.07594 361.4302 314.38477 308.06055 C 314.78233 239.4119 316.14243 216.57996 319.84961 216.31445 C 321.98071 216.16196 321.91994 215.9732 319.54297 215.35742 C 315.15905 214.22154 316.46504 207.23018 320.86523 208.2793 C 324.73066 209.20074 336.221 209.15942 345.42773 208.18945 L 351.97656 207.5 L 351.1543 183.75586 C 350.4348 163.01809 349.87651 159.28884 346.74414 154.2832 C 343.20821 148.63258 341.11497 146.54725 331.82422 143.62109 L 240.03711 233.11719 L 152.14453 142.97656 C 134.68627 147.85465 133.09995 153.10539 130.91211 183.91797 C 129.89734 198.20936 128.47548 210.46596 127.75195 211.15625 C 126.50554 212.34535 127.30865 179.13853 128.65234 173.93164 C 129.17956 171.88843 126.46392 171.3978 112.50195 171.00977 L 95.71875 170.54297 L 95.71875 177.14844 C 95.71875 180.78234 94.982613 183.75586 94.082031 183.75586 C 93.181445 183.75586 92.382861 183.20278 92.308594 182.52734 C 92.234515 181.8519 91.860977 179.42248 91.478516 177.12695 C 90.177954 169.32791 93.428242 167.56007 109.63672 167.25 C 125.27676 166.95059 130.10547 165.5776 130.10547 161.43164 C 130.10547 157.05732 135.33031 147.60299 139.12109 145.11914 C 140.47489 144.23212 144.89436 142.63102 150.23242 141.01562 L 148.57812 139.31836 z M 335.68945 139.84961 L 333.95117 141.54688 C 340.37725 143.6502 343.37509 145.52997 346.37891 148.95117 C 349.00813 151.94559 351.1582 155.68054 351.1582 157.25 C 351.1582 158.81946 352.33487 161.78403 353.77344 163.83789 C 356.17547 167.26745 357.54722 167.55543 370.55859 167.36914 C 388.89322 167.10618 388.82031 167.09942 388.82031 169.01953 C 388.82031 170.01258 381.68446 170.65625 370.68945 170.65625 L 352.56055 170.65625 L 353.29688 192.00391 L 354.03516 213.35352 L 348.91211 216.08984 C 345.63406 217.84126 339.3694 218.92803 331.50977 219.10938 L 319.22852 219.39258 L 318.91211 228.18359 C 317.94982 254.95686 317.7446 327.72755 318.62891 328.61328 C 319.19926 329.18456 326.07584 329.97706 333.91016 330.375 C 341.74441 330.77294 348.73522 331.4577 349.44531 331.89648 C 351.28863 333.03571 352.88361 342.09174 351.75781 345.02539 C 349.96772 349.69046 347.88477 347.49764 347.88477 340.94922 L 347.88477 334.40039 L 332.42578 334.40039 C 323.92333 334.40039 316.58105 335.02121 316.11133 335.78125 C 315.6416 336.54117 316.02561 339.94123 316.96289 343.33594 C 317.90012 346.73058 318.18068 353.04339 317.58594 357.36523 C 316.36366 366.25226 314.33012 367.47842 299.58008 368.2168 C 295.0771 368.44219 285.86571 369.00102 279.11133 369.45898 C 263.97728 370.48747 217.12724 370.47276 200.51562 369.43555 C 193.76118 369.01379 184.91786 368.47951 180.86523 368.24805 C 176.81254 368.01665 171.61272 367.26262 169.30859 366.57227 C 165.14104 365.3235 165.12249 365.23702 165.71289 349.85938 L 166.30469 334.40234 L 149.8418 334.40234 C 139.95814 334.40234 133.37891 333.74871 133.37891 332.76562 C 133.37891 331.8328 138.22346 331.12695 144.63672 331.12695 C 150.8283 331.12695 158.22511 330.66178 161.07422 330.0918 L 166.25391 329.05469 L 165.38281 295.29688 C 164.90337 276.72913 164.32265 251.95772 164.0918 240.25 L 163.67188 218.96289 L 149.75391 218.84766 L 135.83594 218.73047 L 148.52539 219.32422 L 161.2168 219.91992 L 161.2168 240.21289 C 161.2168 251.37377 161.82009 262.20994 162.55859 264.29492 C 163.29686 266.37985 163.58397 281.53296 163.19531 297.96875 L 162.48828 327.85156 L 148.34375 327.87695 C 133.24256 327.90375 129.02331 329.22374 130.63281 333.41797 C 131.45777 335.56781 134.44637 336.03906 147.24609 336.03906 L 162.85352 336.03906 L 162.85352 340.32812 L 162.85352 344.61719 L 147.29883 343.9375 C 133.28413 343.32457 131.74219 343.54225 131.74219 346.13867 C 131.74219 348.66046 133.73683 349.07797 147.70703 349.48828 L 163.67188 349.95703 L 163.17969 358.19531 C 162.70223 366.19277 162.84536 366.48915 168.0918 368.38477 C 171.06406 369.4587 182.28665 370.73357 193.0293 371.21875 C 203.77195 371.7037 212.91997 372.46098 213.35938 372.90039 L 213.36133 372.90039 C 214.73411 374.27318 255.96324 373.76751 279.11133 372.09375 C 318.79534 369.22442 320.04688 368.74482 320.04688 356.39062 L 320.04688 349.13867 L 336.24609 349.13867 C 353.87173 349.13867 354.43359 348.83071 354.43359 339.17969 C 354.43359 330.49578 349.7112 327.85156 334.20508 327.85156 L 320.52734 327.85156 L 319.59375 315.98047 C 318.66965 304.24577 319.68137 251.84875 321.23047 231.24219 L 322.03125 220.59961 L 332.94727 220.55664 C 340.94676 220.52669 345.38566 219.61879 349.55859 217.16211 C 355.23624 213.81951 355.25258 213.77489 355.31445 201.64844 C 355.34788 194.95916 355.53141 188.59032 355.72266 187.49609 C 355.96247 186.12362 361.27709 185.36284 372.85547 185.04102 L 389.63867 184.57422 L 390.14258 175.72266 C 390.48247 169.75053 389.94867 166.42997 388.50391 165.51367 C 387.32624 164.76675 379.27171 164.14333 370.60352 164.13086 L 354.84375 164.10547 L 353.83203 159.05664 C 352.48109 152.30189 347.06733 144.96538 341.18945 141.92578 C 340.25993 141.44511 338.27911 140.71009 335.68945 139.84961 z M 112.20703 172.29492 C 126.67135 172.29492 127.04511 172.39212 126.53516 175.98047 C 126.0442 179.43768 125.12843 179.69299 111.68359 180.13672 L 97.355469 180.60938 L 97.355469 176.45312 C 97.355469 172.30825 97.397085 172.29492 112.20703 172.29492 z M 370.92188 172.29492 C 385.38621 172.29492 385.75933 172.39212 385.25 175.98047 C 384.7635 179.40605 383.80089 179.69784 371.55078 180.13477 C 357.66592 180.63024 356.07031 180.13064 356.07031 175.29688 C 356.07031 172.60683 357.61269 172.29492 370.92188 172.29492 z M 143.20508 215.06836 C 142.16633 215.06836 141.1259 215.17118 140.33789 215.37695 C 138.76187 215.7885 140.05303 216.12695 143.20508 216.12695 C 146.35711 216.12695 147.64633 215.78912 146.07031 215.37695 C 145.2823 215.17118 144.24383 215.06836 143.20508 215.06836 z M 331.50977 216.69531 C 330.17423 216.69531 328.83738 216.79303 327.82422 216.98828 C 325.7979 217.37855 327.45714 217.69727 331.50977 217.69727 C 335.56228 217.69727 337.21967 217.37879 335.19336 216.98828 C 334.18017 216.79303 332.8453 216.69531 331.50977 216.69531 z M 332.32812 336.03906 C 346.08228 336.03906 346.24609 336.08736 346.24609 340.13281 C 346.24609 344.1509 346.00997 344.22656 333.41992 344.22656 C 319.77116 344.22656 318.41016 343.75603 318.41016 339.04102 C 318.41016 336.36582 319.9233 336.03906 332.32812 336.03906 z "
       transform="scale(0.26458334)"
       id="path1527" />
  </g>
  <g
     style="display:none"
     id="layer2">
    <path
       id="path1460"
       d="m 94.040917,169.19697 c -1.078234,0.27144 -1.620356,-0.0273 -2.567386,-1.4146 -0.515723,-0.7555 -0.885967,-1.48999 -0.822753,-1.6322 0.06322,-0.1422 0.662024,-0.47928 1.330715,-0.74902 1.027075,-0.41432 1.548138,-0.84128 3.356935,-2.75068 2.308524,-2.43691 1.704576,-2.31407 -0.748809,0.15232 -2.448206,2.46116 -3.519932,2.9801 -4.174438,2.0213 -0.138298,-0.2026 -0.590624,-0.54976 -1.005164,-0.77145 -0.414538,-0.2217 -0.997846,-0.75942 -1.296224,-1.19495 -0.298386,-0.43552 -0.931009,-1.04419 -1.405826,-1.3526 -1.350881,-0.87744 -1.579103,-1.3741 -0.857698,-1.86655 0.899374,-0.61394 0.87921,-1.15233 -0.09668,-2.58195 -1.006842,-1.47495 -1.722421,-1.9426 -2.333839,-1.52523 -0.342046,0.23348 -0.531819,0.14299 -0.933194,-0.44499 -0.286886,-0.42027 -0.436263,-0.97351 -0.346921,-1.28485 0.08631,-0.30073 0.06642,-0.98631 -0.04419,-1.52352 -0.110603,-0.5372 -0.202333,-1.55577 -0.203837,-2.26348 -0.0057,-2.67022 -0.409676,-5.49825 -1.063611,-7.44588 -0.588648,-1.75313 -0.753188,-2.0418 -1.265006,-2.2192 -0.673452,-0.23343 -1.589147,-1.88372 -1.726293,-3.11117 -0.04574,-0.40928 -0.144544,-0.94332 -0.219579,-1.18676 -0.07502,-0.24346 0.06317,-0.62611 0.307138,-0.85037 0.371507,-0.3415 0.33233,-0.72756 -0.24121,-2.37653 -0.96211,-2.76615 -0.915437,-2.95351 1.032076,-4.14357 1.255146,-0.76696 2.033359,-1.04011 3.598749,-1.26311 1.098517,-0.15649 2.853509,-0.60104 3.899981,-0.98788 3.70955,-1.37131 4.788127,-1.21954 5.505465,0.77469 0.215666,0.59955 0.65618,1.9118 0.978921,2.91611 0.465375,1.44814 0.728464,1.93147 1.271343,2.33565 0.96693,0.71989 1.599661,2.72984 1.025486,3.25758 -0.307964,0.28312 -0.299788,0.92573 0.03243,2.54068 0.24458,1.18895 0.42983,2.33683 0.41166,2.55081 -0.06731,0.79283 1.159472,2.72806 2.041436,3.22033 0.463008,0.25844 0.968827,0.65592 1.124039,0.88329 0.401703,0.58847 1.989037,0.82091 2.627877,0.38483 0.29735,-0.20298 0.75825,-0.32932 1.02423,-0.28076 0.26597,0.0486 0.93409,0.0577 1.4847,0.0204 0.5506,-0.0374 1.03712,0.0842 1.08115,0.27002 0.11445,0.48326 3.76871,0.73339 4.40172,0.30128 0.2225,-0.15189 0.67344,-0.15815 1.00207,-0.0139 0.43611,0.1914 0.71286,0.13232 1.02446,-0.21874 0.61103,-0.68842 4.73127,-1.08755 5.72037,-0.55413 1.73886,0.93773 2.19821,2.9453 0.98633,4.31065 -0.28066,0.3162 -2.52963,1.56395 -5.14846,2.85639 -2.55754,1.2622 -4.66284,2.36249 -4.67842,2.44508 -0.0436,0.23139 8.44401,-3.81743 9.49965,-4.53156 0.67915,-0.45997 0.98608,-0.87048 1.12769,-1.51084 0.18882,-0.85389 0.21525,-0.87671 0.90525,-0.78187 1.30978,0.18003 1.73738,1.55965 0.85746,2.76651 -0.29909,0.41023 -2.92103,2.50442 -5.86106,4.68135 -6.6951,4.95735 -8.55745,5.97855 -9.21485,5.05286 -0.59639,-0.83979 -1.3912,-0.79893 -3.0298,0.15574 -1.89647,1.10492 -2.18948,1.59545 -1.74305,2.91846 0.3004,0.89026 0.25427,1.07927 -0.42583,1.74482 -0.895964,0.87679 -5.60951,4.12127 -6.205225,4.2712 z m 13.483123,-14.63275 c -0.18882,0.0411 -0.48631,0.23886 -0.66121,0.43925 -0.17479,0.20055 -0.0203,0.16689 0.34329,-0.0748 0.36338,-0.242 0.50662,-0.40577 0.31781,-0.36463 z m -1.68394,0.82712 c -0.19162,0.0419 -0.43746,0.20975 -0.54631,0.37292 -0.10886,0.16318 0.0479,0.12888 0.34839,-0.0762 0.30047,-0.20511 0.38956,-0.33857 0.19792,-0.29668 z M 99.483333,158.75 c -0.423707,0.21816 -1.062889,0.65448 -1.420404,0.9696 -0.357522,0.31513 -0.01087,0.13662 0.77036,-0.39666 0.781224,-0.53329 1.073754,-0.79109 0.650044,-0.57294 z"
       style="display:inline;fill:#e400a1;fill-opacity:1;stroke-width:0.26458332" />
    <path
       id="path1460-3"
       d="m 33.488254,169.19697 c 1.07823,0.27144 1.62035,-0.0273 2.56738,-1.4146 0.51573,-0.7555 0.88597,-1.48999 0.82276,-1.6322 -0.0632,-0.1422 -0.66203,-0.47928 -1.33072,-0.74902 -1.02707,-0.41432 -1.54814,-0.84128 -3.35693,-2.75068 -2.30853,-2.43691 -1.70458,-2.31407 0.7488,0.15232 2.44821,2.46116 3.51994,2.9801 4.17444,2.0213 0.1383,-0.2026 0.59063,-0.54976 1.00517,-0.77145 0.41453,-0.2217 0.99784,-0.75942 1.29622,-1.19495 0.29839,-0.43552 0.93101,-1.04419 1.40583,-1.3526 1.35088,-0.87744 1.5791,-1.3741 0.85769,-1.86655 -0.89937,-0.61394 -0.87921,-1.15233 0.0967,-2.58195 1.00685,-1.47495 1.72243,-1.9426 2.33384,-1.52523 0.34205,0.23348 0.53182,0.14299 0.9332,-0.44499 0.28688,-0.42027 0.43626,-0.97351 0.34692,-1.28485 -0.0863,-0.30073 -0.0664,-0.98631 0.0442,-1.52352 0.1106,-0.5372 0.20233,-1.55577 0.20384,-2.26348 0.006,-2.67022 0.40967,-5.49825 1.06361,-7.44588 0.58864,-1.75313 0.75318,-2.0418 1.265,-2.2192 0.67345,-0.23343 1.58915,-1.88372 1.7263,-3.11117 0.0457,-0.40928 0.14454,-0.94332 0.21957,-1.18676 0.075,-0.24346 -0.0632,-0.62611 -0.30713,-0.85037 -0.37151,-0.3415 -0.33233,-0.72756 0.24121,-2.37653 0.96211,-2.76615 0.91543,-2.95351 -1.03208,-4.14357 -1.25515,-0.76696 -2.03336,-1.04011 -3.59875,-1.26311 -1.09852,-0.15649 -2.85351,-0.60104 -3.89998,-0.98788 -3.70955,-1.37131 -4.78813,-1.21954 -5.50546,0.77469 -0.21567,0.59955 -0.65619,1.9118 -0.97893,2.91611 -0.46537,1.44814 -0.72846,1.93147 -1.27134,2.33565 -0.96693,0.71989 -1.59966,2.72984 -1.02549,3.25758 0.30797,0.28312 0.29979,0.92573 -0.0324,2.54068 -0.24458,1.18895 -0.42982,2.33683 -0.41165,2.55081 0.0673,0.79283 -1.15948,2.72806 -2.04144,3.22033 -0.46301,0.25844 -0.96883,0.65592 -1.12404,0.88329 -0.4017,0.58847 -1.98904,0.82091 -2.62788,0.38483 -0.29735,-0.20298 -0.75825,-0.32932 -1.02423,-0.28076 -0.26597,0.0486 -0.93409,0.0577 -1.4847,0.0204 -0.5506,-0.0374 -1.03712,0.0842 -1.08115,0.27002 -0.11445,0.48326 -3.76871,0.73339 -4.40172,0.30128 -0.2225,-0.15189 -0.67344,-0.15815 -1.00207,-0.0139 -0.43611,0.1914 -0.71286,0.13232 -1.02446,-0.21874 -0.61103,-0.68842 -4.73127,-1.08755 -5.72037,-0.55413 -1.7388606,0.93773 -2.1982106,2.9453 -0.9863306,4.31065 0.28066,0.3162 2.5296306,1.56395 5.1484606,2.85639 2.55754,1.2622 4.66284,2.36249 4.67842,2.44508 0.0436,0.23139 -8.44401,-3.81743 -9.4996506,-4.53156 -0.67915,-0.45997 -0.98608,-0.87048 -1.12769,-1.51084 -0.18882,-0.85389 -0.21525,-0.87671 -0.90525,-0.78187 -1.30978,0.18003 -1.73738,1.55965 -0.85746,2.76651 0.29909,0.41023 2.92103,2.50442 5.8610606,4.68135 6.6951,4.95735 8.55745,5.97855 9.21485,5.05286 0.59639,-0.83979 1.3912,-0.79893 3.0298,0.15574 1.89647,1.10492 2.18948,1.59545 1.74305,2.91846 -0.3004,0.89026 -0.25427,1.07927 0.42583,1.74482 0.89597,0.87679 5.60951,4.12127 6.20523,4.2712 z m -13.48313,-14.63275 c 0.18882,0.0411 0.48631,0.23886 0.66121,0.43925 0.17479,0.20055 0.0203,0.16689 -0.34329,-0.0748 -0.36338,-0.242 -0.50662,-0.40577 -0.31781,-0.36463 z m 1.68394,0.82712 c 0.19162,0.0419 0.43746,0.20975 0.54631,0.37292 0.10886,0.16318 -0.0479,0.12888 -0.34839,-0.0762 -0.30047,-0.20511 -0.38956,-0.33857 -0.19792,-0.29668 z m 6.35677,3.35866 c 0.42371,0.21816 1.06289,0.65448 1.4204,0.9696 0.35753,0.31513 0.0109,0.13662 -0.77036,-0.39666 -0.78122,-0.53329 -1.07375,-0.79109 -0.65004,-0.57294 z"
       style="display:inline;fill:#e400a1;fill-opacity:1;stroke-width:0.26458332" />
  </g>
  <g
     style="display:none"
     id="layer4">
    <path
       id="path1559"
       d="m 46.432947,137.58093 c -3.56316,-0.28638 -7.171436,-0.70848 -9.398283,-1.09945 -2.274262,-0.39928 -2.436589,-0.48406 -2.436589,-1.27249 0,-0.46459 0.31327,-0.99283 0.696161,-1.17385 0.565531,-0.26737 0.701441,-1.15415 0.724209,-4.72531 0.01579,-2.41789 0.319935,-9.39315 0.67669,-15.50059 0.645993,-11.05857 0.898429,-12.46386 2.683429,-14.938074 0.157346,-0.218122 1.155164,-1.764809 2.217323,-3.437081 1.062177,-1.672271 2.100305,-3.225108 2.306959,-3.450749 0.335599,-0.366425 0.887518,-0.371449 5.165835,-0.04703 6.066142,0.459988 21.194564,0.28286 26.835435,-0.314197 2.169733,-0.229654 4.075733,-0.417715 4.235569,-0.417914 0.159801,-1.99e-4 1.171389,1.219141 2.247897,2.709643 1.076508,1.490504 2.218796,2.947958 2.538416,3.238787 0.319619,0.290831 0.698599,0.826222 0.842139,1.189759 0.143488,0.363537 1.006729,1.889006 1.918156,3.389936 1.524074,2.50984 1.695347,3.10427 2.133072,7.40294 0.674637,6.6255 1.400039,17.84679 1.400285,21.66108 1.23e-4,1.98286 0.180166,3.23879 0.464318,3.23879 0.25526,0 0.464107,0.46668 0.464107,1.03707 0,0.93798 -0.144014,1.06302 -1.508375,1.30888 -5.806004,1.04635 -12.955092,1.52007 -17.503247,1.15979 -2.365125,-0.18735 -2.565429,-0.26015 -2.979316,-1.08293 -0.294693,-0.58581 -0.28401,-0.94103 0.03175,-1.05757 0.322356,-0.11896 0.285204,-1.11607 -0.115421,-3.09554 -0.325005,-1.60603 -1.240484,-6.66249 -2.034385,-11.2366 -0.793901,-4.5741 -1.54465,-8.68256 -1.668351,-9.12989 l -0.224897,-0.81334 -2.75947,0.25315 -2.759471,0.25317 -0.245947,1.08896 c -0.135243,0.59893 -0.678163,4.06336 -1.206436,7.69873 -0.528256,3.63537 -1.261288,8.25636 -1.628971,10.26885 -0.367665,2.0125 -0.538973,4.28681 -0.38068,5.05401 0.180447,0.87464 0.103669,1.45973 -0.20583,1.5687 -0.614032,0.21619 -8.636447,0.42223 -10.526187,0.27035 z"
       style="display:inline;fill:#159ae5;fill-opacity:1;stroke-width:0.35029581" />
  </g>
  <flowRoot
     xml:space="preserve"
     id="flowRoot827"
     style="font-style:normal;font-weight:normal;font-size:8px;line-height:1.25;font-family:sans-serif;letter-spacing:0px;word-spacing:0px;fill:#000000;fill-opacity:1;stroke:none"
     transform="matrix(0.26458334,0,0,0.26458334,5.022599,2.331921)"><flowRegion
       id="flowRegion829"><rect
         id="rect831"
         width="58.305084"
         height="56.949154"
         x="248.13559"
         y="303.72882" /></flowRegion><flowPara
       id="flowPara833"
       style="font-size:42.66666794px;fill:#fb27ec;fill-opacity:1">F</flowPara></flowRoot></svg>
