<?xml version="1.0" encoding="UTF-8" standalone="no"?>
<svg
   xmlns:dc="http://purl.org/dc/elements/1.1/"
   xmlns:cc="http://creativecommons.org/ns#"
   xmlns:rdf="http://www.w3.org/1999/02/22-rdf-syntax-ns#"
   xmlns:svg="http://www.w3.org/2000/svg"
   xmlns="http://www.w3.org/2000/svg"
   id="svg851"
   version="1.1"
   viewBox="0 0 127 169.33334"
   height="40pc"
   width="30pc">
  <defs
     id="defs845" />
  <metadata
     id="metadata848">
    <rdf:RDF>
      <cc:Work
         rdf:about="">
        <dc:format>image/svg+xml</dc:format>
        <dc:type
           rdf:resource="http://purl.org/dc/dcmitype/StillImage" />
        <dc:title></dc:title>
      </cc:Work>
    </rdf:RDF>
  </metadata>
  <g
     style="display:none"
     transform="translate(0,-127.66664)"
     id="layer1">
    <path
       id="path1436"
       d="m 13.117557,207.20988 9.132127,-14.22383 c 5.022679,-7.82305 10.967109,-17.2087 13.209846,-20.85692 l 4.077715,-6.63308 9.62331,0.87001 c 12.136415,1.09717 16.881892,1.09172 28.883766,-0.0311 l 9.637127,-0.90347 3.035525,5.29185 c 1.669533,2.91051 7.540789,12.22417 13.047267,20.69709 l 10.01173,15.40523 0.50577,9.9375 c -4.32707,0.53419 -8.44684,-4.78593 -17.108492,-15.94665 -7.514117,-9.68228 -12.57756,-15.11197 -13.140685,-14.09134 -0.50385,0.91324 -1.687983,6.30023 -2.631384,11.97114 l -1.715273,10.31065 6.304861,22.68355 c 12.806962,46.07666 16.254063,59.33737 15.837383,60.9253 -0.26557,1.01206 -2.589404,1.46873 -6.153457,1.20919 v 3.7e-4 L 89.947968,293.40805 77.45914,265.11129 C 70.590265,249.5481 64.970295,236.28033 64.970295,235.62735 c 0,-0.65297 -0.463997,-1.18561 -1.031071,-1.18369 -0.843124,0.002 -15.399536,32.22844 -24.372055,53.95577 -2.047782,4.95885 -2.383855,5.15536 -8.815199,5.15536 h -6.686248 l 3.17542,-11.34175 c 1.746479,-6.23798 6.980556,-25.26119 11.631268,-42.27384 l 8.455839,-30.9321 -1.686144,-10.31067 c -0.927381,-5.6709 -2.090321,-11.09115 -2.584309,-12.04506 -0.564862,-1.09079 -5.426889,4.1384 -13.101865,14.09128 -8.216815,10.65552 -12.33356,16.05083 -16.48863,16.07374 m 43.386965,-55.60247 c -12.363648,-6.3539 -11.796783,-24.1211 0.939384,-29.44258 9.395373,-3.92568 19.722536,2.06892 21.697143,12.59455 2.202226,11.73886 -12.003938,22.31234 -22.636527,16.84803 z"
       style="fill:#000000;stroke-width:1.37475872" />
  </g>
  <g
     style="display:none"
     id="layer3">
    <path
       id="path1527"
       d="m 56.451578,98.663289 c -0.116258,-0.11626 -2.537043,-0.316467 -5.37937,-0.444777 -2.842326,-0.12837 -5.811292,-0.465751 -6.597703,-0.749895 -1.38812,-0.501547 -1.426043,-0.580209 -1.299715,-2.696202 l 0.130176,-2.179574 -4.22406,-0.123954 c -3.696282,-0.108562 -4.224076,-0.219269 -4.224076,-0.886492 0,-0.686969 0.407705,-0.744673 4.11576,-0.582501 l 4.11576,0.18002 v -1.134776 -1.134776 h -4.129351 c -3.386594,0 -4.177246,-0.124772 -4.395516,-0.693585 -0.425848,-1.109723 0.690196,-1.45889 4.685719,-1.46598 l 3.742523,-0.0065 0.186979,-7.906588 c 0.102831,-4.348636 0.02702,-8.357947 -0.168312,-8.909583 -0.195395,-0.551652 -0.355275,-3.419064 -0.355275,-6.372048 v -5.369054 l -3.357594,-0.157357 -3.357595,-0.157194 3.682511,0.03078 3.682527,0.03078 0.111019,5.632092 c 0.06108,3.097668 0.214798,9.651586 0.341651,14.564303 l 0.230632,8.932196 -1.370582,0.274123 c -0.753827,0.150807 -2.710906,0.274106 -4.349095,0.274106 -1.696842,0 -2.978512,0.186422 -2.978512,0.433233 0,0.260107 1.740758,0.433249 4.355808,0.433249 h 4.355808 l -0.15703,4.089627 c -0.156211,4.068668 -0.151299,4.091313 0.951367,4.421715 0.609634,0.182656 1.985718,0.382178 3.057993,0.443401 1.072258,0.06124 3.411745,0.202584 5.198858,0.314175 4.395156,0.274429 16.791216,0.278719 20.795434,0.0066 1.787098,-0.12117 4.224061,-0.269145 5.415475,-0.328781 3.902615,-0.195362 4.44071,-0.51964 4.764103,-2.870998 0.157358,-1.143487 0.08302,-2.813933 -0.164955,-3.712099 -0.24799,-0.898183 -0.349232,-1.797561 -0.224951,-1.998622 0.124281,-0.201093 2.066526,-0.365606 4.316133,-0.365606 h 4.0902 v 1.732947 c 0,1.732604 0.551325,2.312649 1.024953,1.07835 0.297866,-0.776194 -0.124281,-3.17227 -0.611992,-3.473689 -0.187879,-0.116094 -2.037543,-0.297277 -4.110356,-0.402564 -2.07283,-0.105287 -3.892234,-0.315141 -4.04314,-0.466292 -0.233973,-0.23435 -0.179447,-19.488368 0.07516,-26.572128 l 0.08367,-2.325682 3.249278,-0.075 c 2.079527,-0.04798 3.737169,-0.33569 4.604486,-0.799085 l 1.355191,-0.724058 -0.195051,-5.648285 -0.195052,-5.648302 h 4.796885 c 2.909096,0 4.796876,-0.17049 4.796876,-0.433233 0,-0.50803 0.0193,-0.506278 -4.831737,-0.436704 -3.442594,0.04929 -3.805155,-0.02685 -4.440693,-0.934255 -0.380622,-0.543416 -0.692046,-1.32778 -0.692046,-1.743034 0,-0.415254 -0.56914,-1.403233 -1.264788,-2.195507 -1.009758,-1.150069 -1.992514,-1.640497 -4.873926,-2.432329 -11.708763,-3.217594 -13.051133,-3.878561 -14.184893,-6.984433 -0.758215,-2.077054 -1.95649,-2.768347 -2.396338,-1.382487 -0.15048,0.474087 -1.103222,1.156718 -2.197881,1.574771 -1.59072,0.607506 -2.082098,1.076614 -2.779727,2.653727 -0.466096,1.053674 -1.13471,1.915767 -1.485826,1.915767 -0.352049,0 -0.954199,-0.826938 -1.342468,-1.843589 -0.581666,-1.523077 -1.041556,-1.98318 -2.645179,-2.646456 -1.067608,-0.441567 -2.138458,-1.171602 -2.379669,-1.622306 -0.749684,-1.400793 -1.588329,-0.909972 -2.422439,1.417741 -1.14496,3.195178 -2.749517,4.011439 -13.102597,6.665575 -2.238162,0.573774 -4.499772,1.325226 -5.025782,1.669874 -1.002978,0.657184 -2.385645,3.158629 -2.385645,4.316002 0,1.096951 -1.27738,1.460019 -5.415475,1.539239 -4.288493,0.08204 -5.148507,0.549916 -4.8044,2.613412 0.101193,0.607358 0.200176,1.250494 0.219776,1.429204 0.01965,0.178709 0.230584,0.324932 0.468864,0.324932 0.238279,0 0.433232,-0.78664 0.433232,-1.74811 v -1.74811 l 4.440693,0.123463 c 3.694105,0.102667 4.412497,0.232729 4.273004,0.773328 -0.35552,1.377657 -0.568092,10.163662 -0.238313,9.849045 0.191433,-0.18264 0.567732,-3.425827 0.836222,-7.207092 0.647541,-9.119665 1.079578,-9.776326 7.433844,-11.29883 5.381105,-1.289333 10.338393,-2.967148 11.525337,-3.900798 1.066757,-0.83912 1.096951,-0.83989 1.307853,-0.0334 0.219416,0.839039 3.211093,2.626578 4.395909,2.626578 0.382669,0 0.863158,-0.712333 1.168933,-1.732947 0.285568,-0.953119 0.634571,-1.728739 0.775571,-1.723581 0.140983,0.0049 0.548787,0.63878 0.906206,1.408031 0.90971,1.957931 2.245448,2.054425 3.142796,0.22703 0.385616,-0.785298 0.790308,-1.730949 0.899312,-2.101436 0.109054,-0.370502 1.021204,-0.945259 2.027113,-1.277232 1.005893,-0.331974 2.048301,-0.954887 2.316431,-1.384256 0.711564,-1.139393 1.071915,-0.964089 1.37859,0.670645 0.577196,3.076725 2.965609,4.409565 12.28722,6.856795 5.711867,1.499547 6.260817,1.777846 7.540326,3.822577 0.828772,1.324407 0.976436,2.311421 1.166804,7.798288 l 0.217943,6.281957 -1.732964,0.182557 c -2.435948,0.256636 -5.475847,0.267868 -6.498573,0.02407 -1.164217,-0.277578 -1.510175,1.572167 -0.350264,1.872702 0.628906,0.162925 0.644904,0.212932 0.08105,0.253279 -0.980857,0.07025 -1.340651,6.110861 -1.445839,24.27415 -0.08171,14.120721 -0.105451,14.484052 -0.964728,14.801911 -0.484485,0.179217 -4.975103,0.573332 -9.979156,0.875799 -7.287604,0.440503 -10.770054,0.443172 -17.498768,0.0131 -4.620287,-0.295082 -8.839157,-0.64474 -9.375302,-0.777012 l -0.974782,-0.24049 -0.056,-12.841868 c -0.03078,-7.06303 -0.176974,-15.766231 -0.324916,-19.340442 l -0.268998,-6.498573 -1.732964,-0.246974 -1.732947,-0.246975 1.732947,-0.186258 c 1.44787,-0.155556 1.70837,-0.328813 1.583466,-1.05274 -0.205056,-1.1885 -0.289351,-1.226521 -1.40081,-0.63169 -0.938283,0.502169 -3.609514,0.383062 -6.639998,-0.296048 -1.129438,-0.253099 -1.233546,-0.186603 -1.015194,0.648375 0.133779,0.511731 0.06648,0.821158 -0.149498,0.687625 -0.216059,-0.133451 -0.392837,-0.04945 -0.392837,0.186831 0,0.236282 0.40461,0.558022 0.899132,0.71497 0.494506,0.15703 0.793027,0.391462 0.663375,0.52113 -0.129685,0.129685 -0.729232,-0.0876 -1.332365,-0.482781 -1.030586,-0.675262 -1.096624,-0.939692 -1.096624,-4.391079 v -3.672539 h -4.502637 c -4.901107,0 -5.028598,-0.06681 -5.028598,-2.634863 0,-2.368584 1.214371,-2.997228 5.789858,-2.997228 h 4.056911 l 0.716394,-1.875879 c 1.259483,-3.297911 2.57757,-4.143761 9.024449,-5.791267 7.851505,-2.006464 10.152659,-3.097111 10.981136,-5.204573 1.272385,-3.236654 2.345266,-3.986681 3.448881,-2.411042 0.318187,0.454257 1.386974,1.190498 2.375085,1.636077 1.237262,0.557923 2.059059,1.324652 2.639693,2.462785 0.463722,0.908957 0.985376,1.65214 1.159239,1.651485 0.17388,-6.39e-4 0.706046,-0.731738 1.182606,-1.624648 0.599186,-1.122675 1.501282,-1.926738 2.924362,-2.606601 1.131828,-0.54073 2.05788,-1.250968 2.05788,-1.578291 0,-0.814428 1.281146,-1.242601 1.98074,-0.661999 0.314159,0.260745 0.882332,1.410814 1.262627,2.555742 0.63264,1.904715 0.901687,2.175612 3.164721,3.186417 1.3603,0.607604 4.762253,1.696957 7.559877,2.420802 2.797625,0.723845 5.657881,1.611498 6.356116,1.972569 1.555188,0.804227 2.987649,2.745047 3.345085,4.532242 l 0.267246,1.336181 4.16991,0.0065 c 2.293459,0.0033 4.424859,0.168312 4.736449,0.365934 0.38226,0.242438 0.52316,1.120972 0.43323,2.701097 l -0.13329,2.341812 -4.44069,0.123462 c -3.063445,0.08515 -4.4692,0.286732 -4.532651,0.649866 -0.0506,0.289515 -0.09939,1.974453 -0.108235,3.744324 -0.01637,3.208457 -0.0208,3.220542 -1.523011,4.104937 -1.10409,0.649997 -2.278361,0.889897 -4.394894,0.897822 l -2.888257,0.01146 -0.211704,2.816046 c -0.409866,5.452154 -0.6778,19.315258 -0.433298,22.420065 l 0.247335,3.140978 h 3.618945 c 4.102661,0 5.35191,0.699628 5.35191,2.997245 0,2.553499 -0.148515,2.634863 -4.811965,2.634863 h -4.286037 v 1.918616 c 0,3.268715 -0.331221,3.39578 -10.83095,4.154958 -6.124599,0.44285 -17.033409,0.576707 -17.396625,0.21349 z m 35.15938,-8.669878 c 0,-1.070359 -0.04339,-1.083098 -3.682511,-1.083098 -3.282109,0 -3.682527,0.08646 -3.682527,0.794271 0,1.247513 0.360121,1.371926 3.971355,1.371926 3.331117,0 3.393683,-0.01998 3.393683,-1.083099 z M 65.616666,49.212501 c 0,-0.598663 -0.29243,-1.380899 -0.649849,-1.738334 -0.867055,-0.867055 -0.827216,-3.573033 0.06714,-4.561307 0.667173,-0.737223 0.667173,-0.847324 0,-1.584547 -0.925299,-1.022447 -0.914918,-2.603342 0.02391,-3.640756 0.63919,-0.706292 0.654058,-0.873687 0.108235,-1.218874 -1.609223,-1.017863 -1.715738,-0.614497 -1.715738,6.496853 0,6.098237 0.08793,6.959528 0.748914,7.329392 0.996445,0.557645 1.417266,0.236233 1.417266,-1.082427 z M 33.478862,46.56128 c 0.134925,-0.949418 0.03619,-0.974782 -3.790828,-0.974782 -3.918465,0 -3.929272,0.0033 -3.929272,1.099964 v 1.099964 l 3.790827,-0.125101 c 3.55728,-0.117404 3.799375,-0.185243 3.929273,-1.099963 z m 68.451638,0 c 0.13476,-0.949418 0.0362,-0.974782 -3.790823,-0.974782 -3.521388,0 -3.929289,0.08253 -3.929289,0.794271 0,1.278935 0.422065,1.410798 4.095767,1.279705 3.241175,-0.115603 3.495625,-0.192841 3.624345,-1.099194 z M 71.102403,34.953891 c 1.033615,-0.605737 1.879318,-1.255602 1.879318,-1.44412 0,-0.833275 -0.611091,-0.773623 -2.045272,0.199636 -0.847848,0.575378 -1.719242,1.046125 -1.936431,1.046125 -0.21719,0 -0.679995,-0.682352 -1.028458,-1.516331 -0.633622,-1.516479 -1.488412,-2.04447 -1.488412,-0.919388 0,1.269996 1.33695,3.735433 2.025639,3.735433 0.392853,0 1.559985,-0.495602 2.593616,-1.101355 z m 15.63463,22.457529 c 0.536129,-0.103322 1.413434,-0.103322 1.94958,0 0.536129,0.103322 0.09743,0.187749 -0.974799,0.187749 -1.072258,0 -1.510911,-0.08449 -0.974781,-0.187749 z M 37.131261,56.985278 c 0.416989,-0.10889 1.099341,-0.10889 1.516331,0 0.416989,0.109053 0.07581,0.198129 -0.758166,0.198129 -0.833979,0 -1.175155,-0.08924 -0.758165,-0.198129 z M 56.445356,33.631809 54.866,32.508086 55.539772,30.530669 c 0.549916,-1.613906 0.761538,-1.857605 1.151264,-1.325651 0.58463,0.797971 3.005235,2.084619 3.921888,2.084619 0.369242,0 0.671365,0.188829 0.671365,0.419642 0,0.230797 -0.251412,0.323148 -0.558709,0.205236 -0.342437,-0.131486 -0.772559,0.376971 -1.111131,1.313306 -0.659854,1.824774 -1.09438,1.880169 -3.169093,0.403988 z"
       style="fill:#80a600;fill-opacity:1;stroke-width:0.43323824" />
  </g>
  <g
     style="display:none"
     id="layer2">
    <path
       id="path1460"
       d="m 94.040917,169.19697 c -1.078234,0.27144 -1.620356,-0.0273 -2.567386,-1.4146 -0.515723,-0.7555 -0.885967,-1.48999 -0.822753,-1.6322 0.06322,-0.1422 0.662024,-0.47928 1.330715,-0.74902 1.027075,-0.41432 1.548138,-0.84128 3.356935,-2.75068 2.308524,-2.43691 1.704576,-2.31407 -0.748809,0.15232 -2.448206,2.46116 -3.519932,2.9801 -4.174438,2.0213 -0.138298,-0.2026 -0.590624,-0.54976 -1.005164,-0.77145 -0.414538,-0.2217 -0.997846,-0.75942 -1.296224,-1.19495 -0.298386,-0.43552 -0.931009,-1.04419 -1.405826,-1.3526 -1.350881,-0.87744 -1.579103,-1.3741 -0.857698,-1.86655 0.899374,-0.61394 0.87921,-1.15233 -0.09668,-2.58195 -1.006842,-1.47495 -1.722421,-1.9426 -2.333839,-1.52523 -0.342046,0.23348 -0.531819,0.14299 -0.933194,-0.44499 -0.286886,-0.42027 -0.436263,-0.97351 -0.346921,-1.28485 0.08631,-0.30073 0.06642,-0.98631 -0.04419,-1.52352 -0.110603,-0.5372 -0.202333,-1.55577 -0.203837,-2.26348 -0.0057,-2.67022 -0.409676,-5.49825 -1.063611,-7.44588 -0.588648,-1.75313 -0.753188,-2.0418 -1.265006,-2.2192 -0.673452,-0.23343 -1.589147,-1.88372 -1.726293,-3.11117 -0.04574,-0.40928 -0.144544,-0.94332 -0.219579,-1.18676 -0.07502,-0.24346 0.06317,-0.62611 0.307138,-0.85037 0.371507,-0.3415 0.33233,-0.72756 -0.24121,-2.37653 -0.96211,-2.76615 -0.915437,-2.95351 1.032076,-4.14357 1.255146,-0.76696 2.033359,-1.04011 3.598749,-1.26311 1.098517,-0.15649 2.853509,-0.60104 3.899981,-0.98788 3.70955,-1.37131 4.788127,-1.21954 5.505465,0.77469 0.215666,0.59955 0.65618,1.9118 0.978921,2.91611 0.465375,1.44814 0.728464,1.93147 1.271343,2.33565 0.96693,0.71989 1.599661,2.72984 1.025486,3.25758 -0.307964,0.28312 -0.299788,0.92573 0.03243,2.54068 0.24458,1.18895 0.42983,2.33683 0.41166,2.55081 -0.06731,0.79283 1.159472,2.72806 2.041436,3.22033 0.463008,0.25844 0.968827,0.65592 1.124039,0.88329 0.401703,0.58847 1.989037,0.82091 2.627877,0.38483 0.29735,-0.20298 0.75825,-0.32932 1.02423,-0.28076 0.26597,0.0486 0.93409,0.0577 1.4847,0.0204 0.5506,-0.0374 1.03712,0.0842 1.08115,0.27002 0.11445,0.48326 3.76871,0.73339 4.40172,0.30128 0.2225,-0.15189 0.67344,-0.15815 1.00207,-0.0139 0.43611,0.1914 0.71286,0.13232 1.02446,-0.21874 0.61103,-0.68842 4.73127,-1.08755 5.72037,-0.55413 1.73886,0.93773 2.19821,2.9453 0.98633,4.31065 -0.28066,0.3162 -2.52963,1.56395 -5.14846,2.85639 -2.55754,1.2622 -4.66284,2.36249 -4.67842,2.44508 -0.0436,0.23139 8.44401,-3.81743 9.49965,-4.53156 0.67915,-0.45997 0.98608,-0.87048 1.12769,-1.51084 0.18882,-0.85389 0.21525,-0.87671 0.90525,-0.78187 1.30978,0.18003 1.73738,1.55965 0.85746,2.76651 -0.29909,0.41023 -2.92103,2.50442 -5.86106,4.68135 -6.6951,4.95735 -8.55745,5.97855 -9.21485,5.05286 -0.59639,-0.83979 -1.3912,-0.79893 -3.0298,0.15574 -1.89647,1.10492 -2.18948,1.59545 -1.74305,2.91846 0.3004,0.89026 0.25427,1.07927 -0.42583,1.74482 -0.895964,0.87679 -5.60951,4.12127 -6.205225,4.2712 z m 13.483123,-14.63275 c -0.18882,0.0411 -0.48631,0.23886 -0.66121,0.43925 -0.17479,0.20055 -0.0203,0.16689 0.34329,-0.0748 0.36338,-0.242 0.50662,-0.40577 0.31781,-0.36463 z m -1.68394,0.82712 c -0.19162,0.0419 -0.43746,0.20975 -0.54631,0.37292 -0.10886,0.16318 0.0479,0.12888 0.34839,-0.0762 0.30047,-0.20511 0.38956,-0.33857 0.19792,-0.29668 z M 99.483333,158.75 c -0.423707,0.21816 -1.062889,0.65448 -1.420404,0.9696 -0.357522,0.31513 -0.01087,0.13662 0.77036,-0.39666 0.781224,-0.53329 1.073754,-0.79109 0.650044,-0.57294 z"
       style="display:inline;fill:#e400a1;fill-opacity:1;stroke-width:0.26458332" />
    <path
       id="path1460-3"
       d="m 33.488254,169.19697 c 1.07823,0.27144 1.62035,-0.0273 2.56738,-1.4146 0.51573,-0.7555 0.88597,-1.48999 0.82276,-1.6322 -0.0632,-0.1422 -0.66203,-0.47928 -1.33072,-0.74902 -1.02707,-0.41432 -1.54814,-0.84128 -3.35693,-2.75068 -2.30853,-2.43691 -1.70458,-2.31407 0.7488,0.15232 2.44821,2.46116 3.51994,2.9801 4.17444,2.0213 0.1383,-0.2026 0.59063,-0.54976 1.00517,-0.77145 0.41453,-0.2217 0.99784,-0.75942 1.29622,-1.19495 0.29839,-0.43552 0.93101,-1.04419 1.40583,-1.3526 1.35088,-0.87744 1.5791,-1.3741 0.85769,-1.86655 -0.89937,-0.61394 -0.87921,-1.15233 0.0967,-2.58195 1.00685,-1.47495 1.72243,-1.9426 2.33384,-1.52523 0.34205,0.23348 0.53182,0.14299 0.9332,-0.44499 0.28688,-0.42027 0.43626,-0.97351 0.34692,-1.28485 -0.0863,-0.30073 -0.0664,-0.98631 0.0442,-1.52352 0.1106,-0.5372 0.20233,-1.55577 0.20384,-2.26348 0.006,-2.67022 0.40967,-5.49825 1.06361,-7.44588 0.58864,-1.75313 0.75318,-2.0418 1.265,-2.2192 0.67345,-0.23343 1.58915,-1.88372 1.7263,-3.11117 0.0457,-0.40928 0.14454,-0.94332 0.21957,-1.18676 0.075,-0.24346 -0.0632,-0.62611 -0.30713,-0.85037 -0.37151,-0.3415 -0.33233,-0.72756 0.24121,-2.37653 0.96211,-2.76615 0.91543,-2.95351 -1.03208,-4.14357 -1.25515,-0.76696 -2.03336,-1.04011 -3.59875,-1.26311 -1.09852,-0.15649 -2.85351,-0.60104 -3.89998,-0.98788 -3.70955,-1.37131 -4.78813,-1.21954 -5.50546,0.77469 -0.21567,0.59955 -0.65619,1.9118 -0.97893,2.91611 -0.46537,1.44814 -0.72846,1.93147 -1.27134,2.33565 -0.96693,0.71989 -1.59966,2.72984 -1.02549,3.25758 0.30797,0.28312 0.29979,0.92573 -0.0324,2.54068 -0.24458,1.18895 -0.42982,2.33683 -0.41165,2.55081 0.0673,0.79283 -1.15948,2.72806 -2.04144,3.22033 -0.46301,0.25844 -0.96883,0.65592 -1.12404,0.88329 -0.4017,0.58847 -1.98904,0.82091 -2.62788,0.38483 -0.29735,-0.20298 -0.75825,-0.32932 -1.02423,-0.28076 -0.26597,0.0486 -0.93409,0.0577 -1.4847,0.0204 -0.5506,-0.0374 -1.03712,0.0842 -1.08115,0.27002 -0.11445,0.48326 -3.76871,0.73339 -4.40172,0.30128 -0.2225,-0.15189 -0.67344,-0.15815 -1.00207,-0.0139 -0.43611,0.1914 -0.71286,0.13232 -1.02446,-0.21874 -0.61103,-0.68842 -4.73127,-1.08755 -5.72037,-0.55413 -1.7388606,0.93773 -2.1982106,2.9453 -0.9863306,4.31065 0.28066,0.3162 2.5296306,1.56395 5.1484606,2.85639 2.55754,1.2622 4.66284,2.36249 4.67842,2.44508 0.0436,0.23139 -8.44401,-3.81743 -9.4996506,-4.53156 -0.67915,-0.45997 -0.98608,-0.87048 -1.12769,-1.51084 -0.18882,-0.85389 -0.21525,-0.87671 -0.90525,-0.78187 -1.30978,0.18003 -1.73738,1.55965 -0.85746,2.76651 0.29909,0.41023 2.92103,2.50442 5.8610606,4.68135 6.6951,4.95735 8.55745,5.97855 9.21485,5.05286 0.59639,-0.83979 1.3912,-0.79893 3.0298,0.15574 1.89647,1.10492 2.18948,1.59545 1.74305,2.91846 -0.3004,0.89026 -0.25427,1.07927 0.42583,1.74482 0.89597,0.87679 5.60951,4.12127 6.20523,4.2712 z m -13.48313,-14.63275 c 0.18882,0.0411 0.48631,0.23886 0.66121,0.43925 0.17479,0.20055 0.0203,0.16689 -0.34329,-0.0748 -0.36338,-0.242 -0.50662,-0.40577 -0.31781,-0.36463 z m 1.68394,0.82712 c 0.19162,0.0419 0.43746,0.20975 0.54631,0.37292 0.10886,0.16318 -0.0479,0.12888 -0.34839,-0.0762 -0.30047,-0.20511 -0.38956,-0.33857 -0.19792,-0.29668 z m 6.35677,3.35866 c 0.42371,0.21816 1.06289,0.65448 1.4204,0.9696 0.35753,0.31513 0.0109,0.13662 -0.77036,-0.39666 -0.78122,-0.53329 -1.07375,-0.79109 -0.65004,-0.57294 z"
       style="display:inline;fill:#e400a1;fill-opacity:1;stroke-width:0.26458332" />
  </g>
  <g
     style="display:none"
     id="layer4">
    <path
       id="path1559"
       d="m 46.432947,137.58093 c -3.56316,-0.28638 -7.171436,-0.70848 -9.398283,-1.09945 -2.274262,-0.39928 -2.436589,-0.48406 -2.436589,-1.27249 0,-0.46459 0.31327,-0.99283 0.696161,-1.17385 0.565531,-0.26737 0.701441,-1.15415 0.724209,-4.72531 0.01579,-2.41789 0.319935,-9.39315 0.67669,-15.50059 0.645993,-11.05857 0.898429,-12.46386 2.683429,-14.938074 0.157346,-0.218122 1.155164,-1.764809 2.217323,-3.437081 1.062177,-1.672271 2.100305,-3.225108 2.306959,-3.450749 0.335599,-0.366425 0.887518,-0.371449 5.165835,-0.04703 6.066142,0.459988 21.194564,0.28286 26.835435,-0.314197 2.169733,-0.229654 4.075733,-0.417715 4.235569,-0.417914 0.159801,-1.99e-4 1.171389,1.219141 2.247897,2.709643 1.076508,1.490504 2.218796,2.947958 2.538416,3.238787 0.319619,0.290831 0.698599,0.826222 0.842139,1.189759 0.143488,0.363537 1.006729,1.889006 1.918156,3.389936 1.524074,2.50984 1.695347,3.10427 2.133072,7.40294 0.674637,6.6255 1.400039,17.84679 1.400285,21.66108 1.23e-4,1.98286 0.180166,3.23879 0.464318,3.23879 0.25526,0 0.464107,0.46668 0.464107,1.03707 0,0.93798 -0.144014,1.06302 -1.508375,1.30888 -5.806004,1.04635 -12.955092,1.52007 -17.503247,1.15979 -2.365125,-0.18735 -2.565429,-0.26015 -2.979316,-1.08293 -0.294693,-0.58581 -0.28401,-0.94103 0.03175,-1.05757 0.322356,-0.11896 0.285204,-1.11607 -0.115421,-3.09554 -0.325005,-1.60603 -1.240484,-6.66249 -2.034385,-11.2366 -0.793901,-4.5741 -1.54465,-8.68256 -1.668351,-9.12989 l -0.224897,-0.81334 -2.75947,0.25315 -2.759471,0.25317 -0.245947,1.08896 c -0.135243,0.59893 -0.678163,4.06336 -1.206436,7.69873 -0.528256,3.63537 -1.261288,8.25636 -1.628971,10.26885 -0.367665,2.0125 -0.538973,4.28681 -0.38068,5.05401 0.180447,0.87464 0.103669,1.45973 -0.20583,1.5687 -0.614032,0.21619 -8.636447,0.42223 -10.526187,0.27035 z"
       style="display:inline;fill:#159ae5;fill-opacity:1;stroke-width:0.35029581" />
  </g>
  <g
     id="layer5">
    <g
       transform="translate(92.207988,-9.6217031)"
       id="g851"
       style="display:inline">
      <rect
         style="fill:#ffffff;fill-opacity:1;stroke:none;stroke-width:0.5;stroke-linejoin:miter;stroke-miterlimit:4;stroke-dasharray:none;stroke-dashoffset:0;stroke-opacity:1;paint-order:markers stroke fill"
         id="rect845"
         width="26.992878"
         height="29.317707"
         x="-42.867874"
         y="12.18695"
         ry="2.697796e-07" />
      <path
         style="fill:#000000;stroke-width:0.26458335"
         d="m -28.113959,63.062864 c -0.731689,-0.735361 -2.309514,-1.669065 -5.1122,-3.025232 -2.229627,-1.078873 -4.127137,-1.961589 -4.216689,-1.961589 -0.08955,0 0.179385,0.357187 0.597639,0.79375 0.931276,0.972042 0.766239,0.989835 -0.978856,0.105529 -1.907812,-0.966761 -4.046045,-3.198337 -4.982966,-5.200489 -0.745615,-1.593342 -1.573408,-5.688883 -1.577244,-7.803478 -0.0017,-0.915128 -0.216875,-1.064872 -0.76053,-0.529167 -0.360527,0.355256 -0.288877,-1.026451 0.258533,-4.985578 0.224259,-1.621947 0.189392,-2.070934 -0.25683,-3.307292 -0.283974,-0.786813 -0.590447,-1.906818 -0.681051,-2.488901 l -0.164734,-1.058334 0.73538,0.86228 c 0.404459,0.474255 0.817585,0.861208 0.918056,0.859896 0.100472,-0.0013 -0.107888,-0.856676 -0.463021,-1.900809 -0.355133,-1.044136 -0.645696,-2.187565 -0.645696,-2.540958 0,-0.353394 -0.30466,-1.619684 -0.677023,-2.813979 -0.466614,-1.496594 -0.651628,-2.618716 -0.595312,-3.610606 0.07489,-1.319014 0.151059,-1.472289 0.912424,-1.836033 l 0.830714,-0.396875 0.115404,-5.820833 c 0.103347,-5.212638 0.175509,-5.966996 0.69064,-7.2196916 0.31638,-0.769372 0.575236,-1.4539814 0.575236,-1.5213544 0,-0.067373 -0.714375,-0.1224968 -1.5875,-0.1224968 -0.873125,0 -1.583931,-0.089297 -1.57957,-0.1984375 0.0044,-0.1091406 1.066155,-0.8506918 2.359541,-1.6478917 2.276555,-1.4031924 2.769012,-1.94304 1.53487,-1.6825744 -1.045549,0.220663 2.148806,-2.482971 4.097977,-3.46843993 2.272444,-1.1489107 4.133886,-1.529792 6.952216,-1.422536 1.3409,0.05103 2.282073,-0.02117 2.334355,-0.17907897 0.126376,-0.381701 5.51052,1.31623937 7.716237,2.4333866 1.018646,0.5159219 2.286384,1.281152 2.817196,1.7005108 1.160267,0.9166516 2.437948,2.8605111 2.88807,4.3939012 0.193837,0.6603261 0.529162,1.1831161 0.817581,1.2746571 0.62157,0.197278 1.691333,1.6243896 1.909104,2.5468296 0.09188,0.38919 -0.0108,2.889502 -0.228158,5.556251 -0.217369,2.666748 -0.395973,4.973542 -0.396899,5.126209 -0.0011,0.152668 0.415033,0.428265 0.924356,0.612439 l 0.926042,0.334861 -0.0034,2.033395 c -0.0021,1.275723 -0.197787,2.653435 -0.52506,3.69742 -0.286907,0.915215 -0.654169,2.403496 -0.816142,3.307292 -0.161973,0.903795 -0.358601,2.000454 -0.436952,2.437016 -0.14243,0.793607 -0.142353,0.79366 0.42268,0.289722 0.708078,-0.631513 0.742138,-0.260287 0.145563,1.586457 -0.336785,1.042541 -0.411448,2.439657 -0.378388,7.08055 0.0232,3.256618 -0.06012,5.719119 -0.190767,5.638371 -0.127577,-0.07884 -0.374473,0.687745 -0.548662,1.703536 -0.314684,1.835102 -1.131787,3.734157 -2.151478,5.000323 l -0.532698,0.661459 -0.02447,-1.190625 c -0.01347,-0.654844 -0.112014,-1.413378 -0.219004,-1.685632 -0.155257,-0.395089 -0.264268,-0.261569 -0.540049,0.661459 -0.988721,3.309228 -3.456668,6.472746 -6.609313,8.472096 -1.104657,0.700553 -1.212876,0.720979 -1.66274,0.313859 -0.45553,-0.412244 -0.481187,-0.390956 -0.481187,0.399294 0,0.459118 -0.0893,0.826894 -0.198437,0.817282 -0.109141,-0.0096 -0.674688,-0.496115 -1.256771,-1.08112 z m 2.621129,-6.111301 c -0.382294,-0.763984 -1.167937,-2.043906 -1.745872,-2.844271 -1.029107,-1.425175 -1.009396,-1.412999 0.955205,0.590037 1.305411,1.330952 2.008026,1.885379 2.011807,1.5875 0.01069,-0.842367 0.959384,-2.56077 2.224661,-4.02962 0.689438,-0.800365 1.538963,-1.99099 1.887834,-2.645833 l 0.63431,-1.190626 -0.162486,1.190626 c -0.218882,1.603872 -1.328,5.121341 -2.127404,6.746875 l -0.650584,1.322917 0.669015,-0.793751 c 0.981456,-1.164449 2.482533,-4.265546 2.940513,-6.07486 0.412229,-1.628552 0.514813,-6.822673 0.159592,-8.080348 -0.185079,-0.655275 -0.193368,-0.651566 -0.88695,0.396875 -0.430723,0.651094 -0.805892,1.727443 -0.97499,2.79722 -0.151172,0.956386 -0.446161,2.206543 -0.655531,2.778125 l -0.380672,1.039238 -0.0227,-1.455208 c -0.03171,-2.03317 -0.397849,-2.530504 -0.928307,-1.260938 -0.22506,0.538646 -0.409202,1.152038 -0.409202,1.363091 0,1.22165 -0.359452,1.11543 -1.075679,-0.317865 -0.418402,-0.837293 -1.135878,-1.875428 -1.594395,-2.306966 l -0.833668,-0.784614 0.396777,0.79375 c 0.519774,1.039802 0.992947,3.313761 0.979943,4.709377 l -0.01035,1.111457 -0.374597,-0.86192 c -0.682564,-1.570525 -1.771689,-2.709688 -3.982884,-4.165876 -1.202597,-0.791969 -2.42325,-1.740876 -2.712564,-2.108679 -0.704106,-0.895127 -0.830347,-0.843124 -0.585771,0.241298 0.273876,1.214331 1.058981,2.435995 2.39078,3.720176 0.603665,0.582084 1.575697,1.625011 2.160069,2.317618 l 1.062495,1.259282 -1.283512,-0.64022 c -0.705932,-0.352121 -2.621667,-1.075209 -4.257189,-1.606862 -2.59337,-0.843016 -3.162772,-1.139466 -4.452252,-2.317975 l -1.478576,-1.351336 0.172472,1.037455 c 0.379389,2.282092 1.086649,3.999381 2.330816,5.659419 l 1.29513,1.728036 -1.360894,-1.322916 c -0.748495,-0.727605 -1.652787,-1.939214 -2.009541,-2.692464 -0.755763,-1.595718 -1.435852,-4.288838 -1.441446,-5.708057 -0.0022,-0.545704 -0.122973,-0.992188 -0.268494,-0.992188 -0.154163,0 -0.268948,0.910966 -0.275042,2.182813 l -0.01046,2.182812 -1.167112,-3.007606 c -0.641912,-1.654183 -1.223586,-3.064079 -1.29261,-3.133103 -0.596798,-0.596797 -0.481925,7.448717 0.125453,8.786543 l 0.360366,0.79375 0.08732,-1.450301 0.08732,-1.4503 0.657627,1.952887 c 1.136122,3.373826 3.122502,5.795785 5.57099,6.792614 l 1.015523,0.41344 -1.330113,-1.179891 c -1.356456,-1.203259 -2.569043,-3.123594 -2.872624,-4.549283 -0.127058,-0.596693 -0.01023,-0.475374 0.470598,0.488691 0.722382,1.44839 1.750163,2.611506 2.980616,3.373099 0.921256,0.570212 5.058967,1.881733 5.574285,1.766869 0.184007,-0.04102 -0.145537,-0.588613 -0.760085,-1.263034 -0.596713,-0.654843 -1.397737,-1.53589 -1.780055,-1.957879 l -0.695122,-0.767255 0.881189,0.502671 c 0.484654,0.276469 1.466919,1.120622 2.182814,1.875896 0.715891,0.755275 1.301623,1.306174 1.301623,1.224225 0,-0.373346 -2.442996,-3.517699 -3.416139,-4.396875 -0.595816,-0.538285 -1.021625,-0.978699 -0.946241,-0.978699 0.298806,0 3.249677,1.749242 4.540219,2.691392 0.752658,0.54947 1.883752,1.597382 2.513542,2.328693 0.629793,0.731311 1.176848,1.329714 1.215681,1.329785 0.03883,7.2e-5 -0.242184,-0.624948 -0.624475,-1.388933 z m 10.146155,-8.466667 c -0.157102,-2.456447 -0.985025,-4.664453 -2.15143,-5.73768 l -0.700406,-0.644454 0.167315,0.909037 c 0.09202,0.499968 0.567031,1.811031 1.055569,2.913468 0.488539,1.102439 1.030454,2.620486 1.204256,3.373437 0.173802,0.752954 0.371869,1.369005 0.44015,1.369005 0.06828,0 0.06132,-0.982266 -0.01545,-2.182813 z m -18.212027,-0.180173 c -1.452527,-0.962874 -2.30542,-1.855962 -3.554904,-3.722431 l -0.974171,-1.455208 0.176054,1.058333 c 0.319299,1.919433 2.039198,3.89822 3.97693,4.575559 1.429221,0.499586 1.566596,0.33293 0.376091,-0.456253 z m 7.046806,-1.313021 c -0.606947,-1.173705 -1.953596,-2.636957 -2.856551,-3.103894 -0.428484,-0.221578 -0.813652,-0.364323 -0.855927,-0.317214 -0.286969,0.319794 0.618922,1.446766 2.096067,2.607609 0.953778,0.749546 1.73414,1.490848 1.73414,1.647338 0,0.156491 0.06831,0.216218 0.151802,0.132729 0.08349,-0.08349 -0.0378,-0.518446 -0.269531,-0.966568 z m 5.144812,-6.096482 c -0.493525,-0.287748 -2.910417,-0.66275 -2.910417,-0.451578 0,0.226145 1.592382,0.648804 2.513542,0.667158 0.57495,0.01146 0.68435,-0.04797 0.396875,-0.21558 z m -12.115859,-0.579985 c 0.539559,-0.134882 1.04213,-0.344123 1.116824,-0.464982 0.145808,-0.235921 -3.256867,0.643496 -3.524195,0.910823 -0.156697,0.156697 0.436678,0.0468 2.407371,-0.445841 z m 16.897629,-0.647613 c 0.374401,-0.188158 0.819833,-0.509715 0.989848,-0.714571 0.230339,-0.277542 -0.07801,-0.240792 -1.209894,0.144195 -1.805099,0.613971 -4.154821,0.515742 -6.485602,-0.271126 -1.925135,-0.64992 -1.707401,-0.275079 0.275262,0.473879 2.693686,1.017548 4.887577,1.142971 6.430386,0.367623 z m -18.865335,-0.501698 c 0.912529,-0.410437 1.616673,-0.788717 1.564766,-0.840626 -0.05191,-0.05191 -0.798522,0.157186 -1.659143,0.464653 -2.321131,0.829252 -5.418356,0.829575 -6.988725,7.94e-4 l -1.190625,-0.628414 0.529166,0.600329 c 0.905264,1.027009 1.944346,1.341591 4.101042,1.241591 1.464729,-0.06792 2.418854,-0.28743 3.643519,-0.838258 z m 14.48044,-0.430178 c -0.582083,-0.283599 -0.862031,-0.461727 -0.622107,-0.39584 1.769965,0.486066 3.726059,0.730726 3.961318,0.495466 0.177742,-0.177741 -0.09268,-0.322889 -0.817507,-0.438795 -0.595706,-0.09526 -2.607225,-0.826035 -4.470043,-1.623949 -3.240709,-1.388116 -4.538175,-1.691958 -5.262142,-1.232287 -0.210986,0.133962 0.155038,0.335011 1.007827,0.553572 0.736526,0.188767 1.287053,0.395298 1.223394,0.45896 -0.06366,0.06366 -0.636246,-0.01085 -1.27241,-0.165571 -0.745914,-0.181414 -1.438537,-0.193723 -1.950413,-0.03466 l -0.79375,0.24666 0.865592,0.02275 c 0.476075,0.01252 1.945259,0.44463 3.264852,0.960274 3.742214,1.462302 7.164626,2.273641 4.865389,1.153422 z m -14.65965,-0.205951 c 3.081016,-1.068827 7.163112,-3.068736 5.266942,-2.580389 -1.695721,0.436724 -1.986775,0.434742 -1.058334,-0.0072 l 0.926042,-0.440804 -0.804434,-0.244419 c -0.690923,-0.209934 -1.138935,-0.07805 -3.175,0.934646 -2.527437,1.257094 -3.626316,1.666023 -5.942441,2.21138 l -1.455209,0.342643 2.19491,-0.08133 c 1.213919,-0.04498 2.041687,0.01588 1.852083,0.136144 -0.646734,0.410265 0.717356,0.242093 2.195441,-0.270667 z m 16.071919,-2.403166 c 2.343468,-2.274261 3.651875,-5.489144 3.924766,-9.643555 0.185854,-2.829358 -0.128535,-4.525665 -1.119129,-6.038339 -0.453205,-0.692063 -0.647766,-1.363325 -0.651841,-2.248959 -0.0061,-1.316153 -0.679503,-3.139886 -1.370579,-3.711623 -0.355626,-0.294214 -0.329983,-0.474601 0.222652,-1.566195 0.343514,-0.678526 0.619308,-1.540927 0.612876,-1.916447 -0.01095,-0.639622 -0.0441,-0.621417 -0.52456,0.28813 -0.282081,0.53399 -0.858362,1.216904 -1.280631,1.517585 -1.78293,1.269559 -5.983103,1.377012 -10.353948,0.264886 -2.596599,-0.660683 -5.716145,-0.783507 -7.357183,-0.289669 -1.444056,0.43456 -3.104627,1.922639 -3.507407,3.143075 -0.179049,0.542523 -0.239799,1.45946 -0.143327,2.1633 0.145892,1.0644 0.04342,1.465993 -0.796072,3.119928 -1.204341,2.37274 -1.428562,4.537895 -0.789803,7.626606 0.734127,3.549862 2.173638,6.151214 4.114737,7.435771 l 1.003132,0.663843 2.410472,-0.964775 c 2.233146,-0.893802 2.389335,-1.004271 2.123145,-1.501653 -0.218835,-0.408895 -0.201977,-0.590486 0.07072,-0.761772 0.519017,-0.326004 1.304056,-0.007 2.112528,0.858496 0.921948,0.986946 1.893154,0.987896 2.824495,0.0028 0.891718,-0.943224 1.527001,-1.176642 2.209017,-0.811639 0.49108,0.262819 0.499338,0.320728 0.107466,0.753742 -0.399248,0.441164 -0.302241,0.519989 1.631693,1.325838 1.130901,0.471234 2.16929,0.96506 2.307535,1.097394 0.48985,0.4689 1.153324,0.227719 2.219248,-0.806725 z m -11.961459,-9.200505 -0.759606,-1.119709 -0.695602,0.494528 c -1.099436,0.781624 -2.752296,1.172348 -4.102686,0.969843 -1.817505,-0.272552 -1.767059,-0.680161 0.08418,-0.680161 1.628405,0 2.330721,-0.515409 0.743219,-0.545426 -0.472943,-0.0089 -1.693333,-0.1636 -2.711979,-0.34368 l -1.852083,-0.32742 0.932398,-0.913092 c 0.512819,-0.5022 1.167663,-1.065597 1.455208,-1.251993 0.563797,-0.365471 0.579108,-0.366102 -2.453752,0.101042 -1.365261,0.210287 -1.461122,-0.127661 -0.351082,-1.237701 0.915772,-0.915772 1.72372,-0.970323 5.576603,-0.376522 1.382448,0.213061 2.955437,0.389519 3.495531,0.392129 0.921217,0.0045 0.999706,0.07054 1.268265,1.067892 0.157451,0.584731 0.251338,1.924185 0.208635,2.976563 l -0.07764,1.913416 z m -4.294811,-4.591575 c 1.175543,-0.0198 1.252733,-0.05198 0.596572,-0.248674 -1.513549,-0.453722 -4.905166,-0.611774 -5.342335,-0.248956 -0.672753,0.558335 0.07776,0.830825 1.835346,0.666362 0.858092,-0.08029 2.167779,-0.156224 2.910417,-0.168732 z m 7.627483,3.247743 c 0.166269,-2.916092 0.442618,-3.489584 1.681533,-3.489584 0.51078,0 2.119849,-0.197825 3.575714,-0.43961 2.473912,-0.41086 2.707928,-0.410566 3.578307,0.0045 0.512207,0.244254 0.856451,0.323016 0.764987,0.175027 -0.09146,-0.147989 -0.0014,-0.269071 0.200075,-0.269071 0.42155,0 1.360369,0.970541 1.602762,1.656918 0.132482,0.375151 0.04969,0.440214 -0.423596,0.332869 -1.928818,-0.437471 -3.001396,-0.653699 -3.234097,-0.651981 -0.145521,0.0011 0.384344,0.577793 1.177478,1.281597 l 1.442058,1.279645 -2.3681,0.330534 c -2.659174,0.371163 -3.726008,0.760441 -2.235811,0.815829 0.509323,0.01894 1.223698,0.124521 1.5875,0.234643 l 0.661458,0.200224 -0.743349,0.202914 c -1.12458,0.306975 -2.947348,0.01259 -4.412856,-0.712671 l -1.313453,-0.65002 -0.671528,1.014751 c -0.369343,0.558112 -0.745887,1.014748 -0.836766,1.014748 -0.09088,0 -0.105423,-1.049062 -0.03232,-2.331249 z m 8.265811,-3.659755 c -0.711547,-0.355345 -1.027306,-0.357006 -2.778125,-0.01461 l -1.975335,0.386298 2.778125,0.01461 c 2.65406,0.01396 2.742274,-0.0033 1.975335,-0.386298 z m -24.223172,2.920779 c -0.168597,-0.203147 -0.500321,-0.365739 -0.737164,-0.361312 -0.37763,0.0071 -0.373643,0.04124 0.0324,0.27773 0.477931,0.278368 0.642053,1.850226 0.289198,2.769754 -0.141925,0.36985 -0.263363,0.288854 -0.661759,-0.441383 l -0.487936,-0.894355 0.161787,0.79375 c 0.08898,0.436562 0.476071,1.448593 0.860196,2.248958 l 0.698409,1.455208 0.07571,-2.739496 c 0.04955,-1.792869 -0.03022,-2.867128 -0.230834,-3.108854 z m 30.643136,3.543433 c 0.892352,-2.254541 0.976265,-3.222295 0.112024,-1.291953 l -0.497917,1.112131 -0.168243,-0.841224 c -0.289933,-1.449663 -0.187552,-2.054466 0.419793,-2.479868 0.565317,-0.395962 0.56736,-0.411877 0.05292,-0.411877 -0.992873,0 -1.170122,0.509003 -1.170122,3.360208 0,1.498865 0.0893,2.722222 0.198437,2.718568 0.109141,-0.0037 0.583041,-0.978345 1.053111,-2.165985 z M -27.394996,11.707811 c -0.559885,-0.763985 -1.164008,-1.7329586 -1.342496,-2.1532766 -0.293449,-0.691034 -0.187897,-0.640361 1.102265,0.5291666 0.784735,0.711359 2.11505,1.683183 2.956253,2.159607 l 1.529464,0.866227 -0.181036,-1.13081 c -0.09957,-0.621946 -0.235387,-1.666592 -0.30181,-2.3214346 -0.112266,-1.106748 -0.0709,-1.050829 0.587179,0.7937496 0.772824,2.166205 0.783243,2.164918 1.118666,-0.138302 l 0.230317,-1.5814896 0.06357,1.190625 c 0.03496,0.6548436 0.140473,1.5478116 0.234469,1.9843746 0.169071,0.78526 0.177675,0.778186 0.804516,-0.661458 0.795705,-1.8274716 0.906192,-4.9791529 0.217971,-6.2177085 l -0.441057,-0.7937501 -0.01466,1.5875001 c -0.01513,1.6417804 -0.375029,2.7522379 -0.640702,1.9769601 -0.0734,-0.2142029 -0.269261,-0.9252413 -0.43525,-1.5800851 -0.396023,-1.5623593 -1.523974,-3.6245121 -2.328805,-4.2575921 -0.9237,-0.7265818 -1.217856,-0.6213435 -0.622472,0.2226961 0.939052,1.3312334 1.837799,3.3590837 2.022804,4.5640627 l 0.182803,1.1906251 -0.780764,-1.5875001 c -0.429422,-0.873125 -1.21665,-2.0885154 -1.749394,-2.700867 -1.20945,-1.3901739 -3.772019,-2.68312413 -5.711255,-2.88162623 l -1.452871,-0.1487175 1.533265,0.80228523 c 2.022849,1.0584617 3.380035,2.1625257 3.994482,3.2494938 l 0.500663,0.8856817 -1.02983,-0.9506848 c -2.402366,-2.2177389 -4.78172,-3.1662511 -7.834504,-3.1231677 l -1.926576,0.02719 2.042997,0.4943703 c 3.866552,0.9356398 6.666828,2.8472753 8.120239,5.5433624 l 0.638236,1.18393 -1.696569,-1.6071805 c -2.81326,-2.6650354 -5.407079,-3.8206761 -8.557612,-3.8127262 -2.293113,0.00579 -2.689347,0.4091633 -0.59411,0.6048198 2.384797,0.2226956 4.628329,1.071041 5.720302,2.1630143 0.503053,0.5030532 0.858278,0.9710069 0.789387,1.0398973 -0.06889,0.06889 -0.687663,-0.2247975 -1.375052,-0.6526391 -1.612872,-1.0038768 -1.817279,-0.9826662 -0.790258,0.082002 0.45622,0.4729427 1.179455,1.6338014 1.607191,2.5796874 1.003065,2.2181596 2.881681,3.9250296 4.356424,3.9581566 0.380275,0.0085 0.274473,-0.258385 -0.546378,-1.378469 z m 8.56079,-1.079374 c 0.608576,-1.3070736 0.915577,-3.7464009 0.403603,-3.2068763 -0.226372,0.2385537 -2.142731,4.7338063 -2.142731,5.0262613 0,0.07618 0.247989,0.0058 0.551088,-0.15643 0.303096,-0.162213 0.837715,-0.910543 1.18804,-1.662955 z m -13.390197,-0.06704 c -0.666409,-1.5546676 -0.654972,-1.6164676 0.133333,-0.7204226 0.884734,1.0056536 0.831864,0.5043926 -0.122271,-1.159246 -1.258082,-2.1936037 -3.386575,-3.5016845 -5.690202,-3.4969548 l -1.058333,0.00217 1.408637,0.5411732 c 0.968903,0.3722352 1.567408,0.8015553 1.91724,1.3752765 0.279732,0.4587565 0.509048,0.9051039 0.509592,0.9918821 5.56e-4,0.08678 -0.624089,-0.05816 -1.388073,-0.322091 -1.510096,-0.5216843 -2.730127,-0.6313046 -2.956139,-0.2656102 -0.0787,0.127345 0.310769,0.3041126 0.865493,0.3928166 0.994915,0.1590926 1.582588,0.5369876 4.275168,2.7490842 0.758286,0.622971 1.64894,1.124479 1.997022,1.124479 h 0.628297 l -0.519764,-1.21256 z"
         id="path843" />
    </g>
  </g>
</svg>
