<?xml version="1.0" encoding="UTF-8" standalone="no"?>
<svg
   xmlns:dc="http://purl.org/dc/elements/1.1/"
   xmlns:cc="http://creativecommons.org/ns#"
   xmlns:rdf="http://www.w3.org/1999/02/22-rdf-syntax-ns#"
   xmlns:svg="http://www.w3.org/2000/svg"
   xmlns="http://www.w3.org/2000/svg"
   id="svg1777"
   version="1.1"
   viewBox="0 0 52.379424 52.223199"
   height="12.336188pc"
   width="12.373093pc">
  <defs
     id="defs1771" />
  <metadata
     id="metadata1774">
    <rdf:RDF>
      <cc:Work
         rdf:about="">
        <dc:format>image/svg+xml</dc:format>
        <dc:type
           rdf:resource="http://purl.org/dc/dcmitype/StillImage" />
        <dc:title></dc:title>
      </cc:Work>
    </rdf:RDF>
  </metadata>
  <g
     transform="translate(-115.17334,-127.25745)"
     id="layer1">
    <path
       id="path1460"
       d="m 136.37788,175.15645 c -1.07824,0.27144 -1.62036,-0.0273 -2.56739,-1.4146 -0.51572,-0.7555 -0.88597,-1.48999 -0.82275,-1.6322 0.0632,-0.1422 0.66202,-0.47928 1.33071,-0.74902 1.02708,-0.41432 1.54814,-0.84128 3.35694,-2.75068 2.30852,-2.43691 1.70457,-2.31407 -0.74881,0.15232 -2.44821,2.46116 -3.51993,2.9801 -4.17444,2.0213 -0.1383,-0.2026 -0.59062,-0.54976 -1.00516,-0.77145 -0.41454,-0.2217 -0.99785,-0.75942 -1.29623,-1.19495 -0.29838,-0.43552 -0.93101,-1.04419 -1.40582,-1.3526 -1.35088,-0.87744 -1.57911,-1.3741 -0.8577,-1.86655 0.89937,-0.61394 0.87921,-1.15233 -0.0967,-2.58195 -1.00684,-1.47495 -1.72242,-1.9426 -2.33384,-1.52523 -0.34205,0.23348 -0.53182,0.14299 -0.93319,-0.44499 -0.28689,-0.42027 -0.43627,-0.97351 -0.34692,-1.28485 0.0863,-0.30073 0.0664,-0.98631 -0.0442,-1.52352 -0.11061,-0.5372 -0.20234,-1.55577 -0.20384,-2.26348 -0.006,-2.67022 -0.40968,-5.49825 -1.06361,-7.44588 -0.58865,-1.75313 -0.75319,-2.0418 -1.26501,-2.2192 -0.67345,-0.23343 -1.58915,-1.88372 -1.72629,-3.11117 -0.0457,-0.40928 -0.14455,-0.94332 -0.21958,-1.18676 -0.075,-0.24346 0.0632,-0.62611 0.30714,-0.85037 0.3715,-0.3415 0.33233,-0.72756 -0.24121,-2.37653 -0.96211,-2.76615 -0.91544,-2.95351 1.03207,-4.14357 1.25515,-0.76696 2.03336,-1.04011 3.59875,-1.26311 1.09852,-0.15649 2.85351,-0.60104 3.89998,-0.98788 3.70955,-1.37131 4.78813,-1.21954 5.50547,0.77469 0.21566,0.59955 0.65618,1.9118 0.97892,2.91611 0.46538,1.44814 0.72846,1.93147 1.27134,2.33565 0.96693,0.71989 1.59966,2.72984 1.02549,3.25758 -0.30797,0.28312 -0.29979,0.92573 0.0324,2.54068 0.24458,1.18895 0.42983,2.33683 0.41166,2.55081 -0.0673,0.79283 1.15947,2.72806 2.04144,3.22033 0.463,0.25844 0.96882,0.65592 1.12403,0.88329 0.40171,0.58847 1.98904,0.82091 2.62788,0.38483 0.29735,-0.20298 0.75825,-0.32932 1.02423,-0.28076 0.26597,0.0486 0.93409,0.0577 1.4847,0.0204 0.5506,-0.0374 1.03712,0.0842 1.08115,0.27002 0.11445,0.48326 3.76871,0.73339 4.40172,0.30128 0.2225,-0.15189 0.67344,-0.15815 1.00207,-0.0139 0.43611,0.1914 0.71286,0.13232 1.02446,-0.21874 0.61103,-0.68842 4.73127,-1.08755 5.72037,-0.55413 1.73886,0.93773 2.19821,2.9453 0.98633,4.31065 -0.28066,0.3162 -2.52963,1.56395 -5.14846,2.85639 -2.55754,1.2622 -4.66284,2.36249 -4.67842,2.44508 -0.0436,0.23139 8.44401,-3.81743 9.49965,-4.53156 0.67915,-0.45997 0.98608,-0.87048 1.12769,-1.51084 0.18882,-0.85389 0.21525,-0.87671 0.90525,-0.78187 1.30978,0.18003 1.73738,1.55965 0.85746,2.76651 -0.29909,0.41023 -2.92103,2.50442 -5.86106,4.68135 -6.6951,4.95735 -8.55745,5.97855 -9.21485,5.05286 -0.59639,-0.83979 -1.3912,-0.79893 -3.0298,0.15574 -1.89647,1.10492 -2.18948,1.59545 -1.74305,2.91846 0.3004,0.89026 0.25427,1.07927 -0.42583,1.74482 -0.89596,0.87679 -5.60951,4.12127 -6.20522,4.2712 z M 149.861,160.5237 c -0.18882,0.0411 -0.48631,0.23886 -0.66121,0.43925 -0.17479,0.20055 -0.0203,0.16689 0.34329,-0.0748 0.36338,-0.242 0.50662,-0.40577 0.31781,-0.36463 z m -1.68394,0.82712 c -0.19162,0.0419 -0.43746,0.20975 -0.54631,0.37292 -0.10886,0.16318 0.0479,0.12888 0.34839,-0.0762 0.30047,-0.20511 0.38956,-0.33857 0.19792,-0.29668 z m -6.35677,3.35866 c -0.4237,0.21816 -1.06288,0.65448 -1.4204,0.9696 -0.35752,0.31513 -0.0109,0.13662 0.77036,-0.39666 0.78122,-0.53329 1.07375,-0.79109 0.65004,-0.57294 z"
       style="display:inline;fill:#e400a1;fill-opacity:1;stroke-width:0.26458332" />
  </g>
</svg>
