<?xml version="1.0" encoding="UTF-8" standalone="no"?>
<svg
   xmlns:dc="http://purl.org/dc/elements/1.1/"
   xmlns:cc="http://creativecommons.org/ns#"
   xmlns:rdf="http://www.w3.org/1999/02/22-rdf-syntax-ns#"
   xmlns:svg="http://www.w3.org/2000/svg"
   xmlns="http://www.w3.org/2000/svg"
   id="svg1777"
   version="1.1"
   viewBox="0 0 66.016665 54.922849"
   height="12.973901pc"
   width="15.594488pc">
  <defs
     id="defs1771" />
  <metadata
     id="metadata1774">
    <rdf:RDF>
      <cc:Work
         rdf:about="">
        <dc:format>image/svg+xml</dc:format>
        <dc:type
           rdf:resource="http://purl.org/dc/dcmitype/StillImage" />
        <dc:title></dc:title>
      </cc:Work>
    </rdf:RDF>
  </metadata>
  <g
     transform="translate(-366.40311,-191.32875)"
     id="layer1">
    <path
       id="path1559"
       d="m 382.47131,241.93879 c -3.56316,-0.28638 -7.17143,-0.70848 -9.39828,-1.09945 -2.27426,-0.39928 -2.43659,-0.48406 -2.43659,-1.27249 0,-0.46459 0.31327,-0.99283 0.69616,-1.17385 0.56553,-0.26737 0.70144,-1.15415 0.72421,-4.72531 0.0158,-2.41789 0.31994,-9.39315 0.67669,-15.50059 0.64599,-11.05857 0.89843,-12.46386 2.68343,-14.93808 0.15735,-0.21812 1.15516,-1.76481 2.21732,-3.43708 1.06218,-1.67227 2.10031,-3.22511 2.30696,-3.45075 0.3356,-0.36642 0.88752,-0.37145 5.16584,-0.047 6.06614,0.45999 21.19456,0.28286 26.83543,-0.3142 2.16974,-0.22965 4.07574,-0.41771 4.23557,-0.41791 0.1598,-2e-4 1.17139,1.21914 2.2479,2.70964 1.0765,1.49051 2.21879,2.94796 2.53841,3.23879 0.31962,0.29083 0.6986,0.82622 0.84214,1.18976 0.14349,0.36354 1.00673,1.88901 1.91816,3.38994 1.52407,2.50984 1.69535,3.10427 2.13307,7.40294 0.67464,6.6255 1.40004,17.84679 1.40029,21.66107 1.2e-4,1.98287 0.18016,3.2388 0.46431,3.2388 0.25526,0 0.46411,0.46668 0.46411,1.03707 0,0.93798 -0.14401,1.06302 -1.50837,1.30887 -5.80601,1.04635 -12.9551,1.52008 -17.50325,1.15979 -2.36513,-0.18734 -2.56543,-0.26014 -2.97932,-1.08292 -0.29469,-0.58582 -0.28401,-0.94103 0.0317,-1.05758 0.32236,-0.11895 0.28521,-1.11606 -0.11542,-3.09554 -0.325,-1.60602 -1.24048,-6.66248 -2.03438,-11.2366 -0.79391,-4.57409 -1.54465,-8.68255 -1.66835,-9.12988 l -0.2249,-0.81334 -2.75947,0.25315 -2.75947,0.25317 -0.24595,1.08896 c -0.13524,0.59893 -0.67816,4.06336 -1.20644,7.69873 -0.52825,3.63537 -1.26128,8.25636 -1.62897,10.26884 -0.36766,2.01251 -0.53897,4.28682 -0.38068,5.05401 0.18045,0.87465 0.10367,1.45974 -0.20583,1.56871 -0.61403,0.21618 -8.63644,0.42223 -10.52618,0.27034 z"
       style="display:inline;fill:#159ae5;fill-opacity:1;stroke-width:0.35029581" />
  </g>
</svg>
